<svg aria-labelledby="bvlp-discontinuity-gallery-title bvlp-discontinuity-gallery-description" class="bvlp-svg" data-bvlp-scene="discontinuity-gallery" data-grayscale-safe="true" focusable="false" height="644" preserveAspectRatio="xMidYMid meet" role="img" style="display:block;height:auto;max-width:100%;width:100%" viewBox="0 0 960 644" width="100%" xmlns="http://www.w3.org/2000/svg"><title id="bvlp-discontinuity-gallery-title">Four types of discontinuity</title><desc id="bvlp-discontinuity-gallery-description">The panels compare a common missing height, unequal one-sided heights, unbounded behavior, and endless oscillation. A two-by-two gallery compares behavior at x = 0. Removable shows y = x + 1 with an open point at (0, 1). Jump shows y = 0 to the left and y = 2 to the right with open and filled markers. Infinite shows y = 1/x on split domains with a vertical asymptote. Oscillatory shows y = sin(1/x) on split domains that never settle near zero. Panel titles name each type. Open and filled markers distinguish inclusion, the jump branches use different line styles, and the infinite panel has a dashed asymptote. Caption: The four principal discontinuity types encountered in first-semester calculus. Reading order: removable-panel: Both sides approach one missing height.; removable-left: Solid left branch stops before zero.; removable-right: Solid right branch begins after zero.; removable-hole: Open circle marks the removable hole.; jump-panel: Finite one-sided limits disagree.; jump-left: Solid lower branch approaches zero.; jump-right: Double-stroked upper branch starts at height two.; jump-open: Open circle marks the left-hand height zero.; jump-closed: Filled diamond marks the included right-hand height two.; infinite-panel: Outputs become unbounded at a vertical asymptote.; infinite-left: Solid reciprocal branch stops before zero.; infinite-right: Solid reciprocal branch begins after zero.; infinite-asymptote: Dashed vertical asymptote at zero.; oscillatory-panel: Outputs continue oscillating without settling.; oscillatory-left: Solid oscillating branch stops before zero.; oscillatory-right: Solid oscillating branch begins after zero..</desc><style>.bvlp-svg text{font-family:ui-sans-serif,system-ui,-apple-system,"Segoe UI",sans-serif}.bvlp-svg .bvlp-axis-label,.bvlp-svg .bvlp-panel-title{font-weight:700}.bvlp-svg .bvlp-annotation{paint-order:stroke;stroke:#fff;stroke-width:4px;stroke-linejoin:round}.bvlp-svg path,.bvlp-svg line,.bvlp-svg polyline,.bvlp-svg polygon,.bvlp-svg circle,.bvlp-svg ellipse{shape-rendering:geometricPrecision}@media print{.bvlp-svg{color-adjust:exact;print-color-adjust:exact}.bvlp-svg .bvlp-panel-bg{fill:#fff}.bvlp-svg text{fill:#000!important}}</style><defs><pattern height="10" id="bvlp-discontinuity-gallery-pattern-diagonal" patternUnits="userSpaceOnUse" width="10"><rect fill="#f8fafc" height="10" width="10"/><path d="M-2 10L10-2M3 15L15 3" fill="none" stroke="#64748b" stroke-width="1.25"/></pattern><pattern height="10" id="bvlp-discontinuity-gallery-pattern-crosshatch" patternUnits="userSpaceOnUse" width="10"><rect fill="#f8fafc" height="10" width="10"/><path d="M-2 10L10-2M3 15L15 3M-2 0L10 12M3-5L15 7" fill="none" stroke="#64748b" stroke-width="1"/></pattern><pattern height="9" id="bvlp-discontinuity-gallery-pattern-dots" patternUnits="userSpaceOnUse" width="9"><rect fill="#f8fafc" height="9" width="9"/><circle cx="4.5" cy="4.5" fill="#64748b" r="1.35"/></pattern><marker id="bvlp-discontinuity-gallery-arrow" markerHeight="7" markerUnits="strokeWidth" markerWidth="7" orient="auto-start-reverse" refX="8.5" refY="5" viewBox="0 0 10 10"><path d="M0 0L10 5L0 10Z" fill="#111827"/></marker></defs><defs><clipPath id="bvlp-discontinuity-gallery-panel-removable-panel-clip"><rect height="182" width="366" x="84" y="80"/></clipPath><clipPath id="bvlp-discontinuity-gallery-panel-jump-panel-clip"><rect height="182" width="366" x="548" y="80"/></clipPath><clipPath id="bvlp-discontinuity-gallery-panel-infinite-panel-clip"><rect height="182" width="366" x="84" y="386"/></clipPath><clipPath id="bvlp-discontinuity-gallery-panel-oscillatory-panel-clip"><rect height="182" width="366" x="548" y="386"/></clipPath></defs><g aria-labelledby="bvlp-discontinuity-gallery-panel-removable-panel-title bvlp-discontinuity-gallery-panel-removable-panel-desc" id="bvlp-discontinuity-gallery-panel-removable-panel" role="group"><title id="bvlp-discontinuity-gallery-panel-removable-panel-title">Removable</title><desc id="bvlp-discontinuity-gallery-panel-removable-panel-desc">Both sides approach one missing height.</desc><text class="bvlp-panel-title" fill="#111827" font-size="15" font-weight="700" text-anchor="middle" x="248" y="48"><tspan dy="0" x="248">Removable</tspan></text><rect class="bvlp-panel-bg" fill="#ffffff" height="182" stroke="#cbd5e1" stroke-width="1" width="366" x="84" y="80"/><line stroke="#e2e8f0" stroke-width="1" x1="84" x2="84" y1="80" y2="262"/><line stroke="#e2e8f0" stroke-width="1" x1="175.5" x2="175.5" y1="80" y2="262"/><line stroke="#e2e8f0" stroke-width="1" x1="267" x2="267" y1="80" y2="262"/><line stroke="#e2e8f0" stroke-width="1" x1="358.5" x2="358.5" y1="80" y2="262"/><line stroke="#e2e8f0" stroke-width="1" x1="450" x2="450" y1="80" y2="262"/><line stroke="#e2e8f0" stroke-width="1" x1="84" x2="450" y1="255.259" y2="255.259"/><line stroke="#e2e8f0" stroke-width="1" x1="84" x2="450" y1="187.852" y2="187.852"/><line stroke="#e2e8f0" stroke-width="1" x1="84" x2="450" y1="120.444" y2="120.444"/><line stroke="#334155" stroke-width="1.5" x1="84" x2="450" y1="187.852" y2="187.852"/><line stroke="#334155" stroke-width="1" x1="84" x2="84" y1="183.852" y2="191.852"/><text fill="#111827" font-size="11" text-anchor="middle" x="84" y="282"><tspan dy="0" x="84">-2</tspan></text><line stroke="#334155" stroke-width="1" x1="175.5" x2="175.5" y1="183.852" y2="191.852"/><text fill="#111827" font-size="11" text-anchor="middle" x="175.5" y="282"><tspan dy="0" x="175.5">-1</tspan></text><line stroke="#334155" stroke-width="1" x1="267" x2="267" y1="183.852" y2="191.852"/><text fill="#111827" font-size="11" text-anchor="middle" x="267" y="282"><tspan dy="0" x="267">0</tspan></text><line stroke="#334155" stroke-width="1" x1="358.5" x2="358.5" y1="183.852" y2="191.852"/><text fill="#111827" font-size="11" text-anchor="middle" x="358.5" y="282"><tspan dy="0" x="358.5">1</tspan></text><line stroke="#334155" stroke-width="1" x1="450" x2="450" y1="183.852" y2="191.852"/><text fill="#111827" font-size="11" text-anchor="middle" x="450" y="282"><tspan dy="0" x="450">2</tspan></text><text class="bvlp-axis-label" fill="#111827" font-size="13" text-anchor="end" x="450" y="301"><tspan dy="0" x="450">x</tspan></text><line stroke="#334155" stroke-width="1.5" x1="267" x2="267" y1="80" y2="262"/><line stroke="#334155" stroke-width="1" x1="263" x2="271" y1="255.259" y2="255.259"/><text fill="#111827" font-size="11" text-anchor="end" x="76" y="259.259"><tspan dy="0" x="76">-2</tspan></text><line stroke="#334155" stroke-width="1" x1="263" x2="271" y1="187.852" y2="187.852"/><text fill="#111827" font-size="11" text-anchor="end" x="76" y="191.852"><tspan dy="0" x="76">0</tspan></text><line stroke="#334155" stroke-width="1" x1="263" x2="271" y1="120.444" y2="120.444"/><text fill="#111827" font-size="11" text-anchor="end" x="76" y="124.444"><tspan dy="0" x="76">2</tspan></text><text class="bvlp-axis-label" fill="#111827" font-size="13" text-anchor="end" x="77" y="73"><tspan dy="0" x="77">y</tspan></text><g clip-path="url(#bvlp-discontinuity-gallery-panel-removable-panel-clip)"><g aria-label="Open circle marks the removable hole." data-layer-id="removable-hole" data-layer-kind="open-point" data-line-style="solid" role="group"><circle cx="267" cy="154.148" fill="#ffffff" r="6.5" stroke="#b45309" stroke-width="3" vector-effect="non-scaling-stroke"/><text class="bvlp-annotation" fill="#111827" font-size="13" text-anchor="start" x="276" y="144.148"><tspan dy="0" x="276">missing point (0, 1)</tspan></text></g><g aria-label="Solid left branch stops before zero." data-layer-id="removable-left" data-layer-kind="piecewise-branch" data-line-style="solid" role="group"><path d="M84,221.556L93.15,218.185L102.3,214.815L111.45,211.444L120.6,208.074L129.75,204.704L138.9,201.333L148.05,197.963L157.2,194.593L166.35,191.222L175.5,187.852" data-segment-index="0" fill="none" stroke="#155e75" stroke-linecap="round" stroke-linejoin="round" stroke-width="3" vector-effect="non-scaling-stroke"/><path d="M175.5,187.852L184.65,184.481L193.8,181.111L202.95,177.741L212.1,174.37L221.25,171L230.4,167.63L239.55,164.259L248.7,160.889L257.85,157.519L267,154.148" data-segment-index="1" fill="none" stroke="#155e75" stroke-linecap="round" stroke-linejoin="round" stroke-width="3" vector-effect="non-scaling-stroke"/></g><g aria-label="Solid right branch begins after zero." data-layer-id="removable-right" data-layer-kind="piecewise-branch" data-line-style="solid" role="group"><path d="M267,154.148L276.15,150.778L285.3,147.407L294.45,144.037L303.6,140.667L312.75,137.296L321.9,133.926L331.05,130.556L340.2,127.185L349.35,123.815L358.5,120.444L367.65,117.074L376.8,113.704L385.95,110.333L395.1,106.963L404.25,103.593L413.4,100.222L422.55,96.852L431.7,93.481L440.85,90.111L450,86.741" data-segment-index="0" fill="none" stroke="#155e75" stroke-linecap="round" stroke-linejoin="round" stroke-width="3" vector-effect="non-scaling-stroke"/></g></g></g><g aria-labelledby="bvlp-discontinuity-gallery-panel-jump-panel-title bvlp-discontinuity-gallery-panel-jump-panel-desc" id="bvlp-discontinuity-gallery-panel-jump-panel" role="group"><title id="bvlp-discontinuity-gallery-panel-jump-panel-title">Jump</title><desc id="bvlp-discontinuity-gallery-panel-jump-panel-desc">Finite one-sided limits disagree.</desc><text class="bvlp-panel-title" fill="#111827" font-size="15" font-weight="700" text-anchor="middle" x="712" y="48"><tspan dy="0" x="712">Jump</tspan></text><rect class="bvlp-panel-bg" fill="#ffffff" height="182" stroke="#cbd5e1" stroke-width="1" width="366" x="548" y="80"/><line stroke="#e2e8f0" stroke-width="1" x1="548" x2="548" y1="80" y2="262"/><line stroke="#e2e8f0" stroke-width="1" x1="639.5" x2="639.5" y1="80" y2="262"/><line stroke="#e2e8f0" stroke-width="1" x1="731" x2="731" y1="80" y2="262"/><line stroke="#e2e8f0" stroke-width="1" x1="822.5" x2="822.5" y1="80" y2="262"/><line stroke="#e2e8f0" stroke-width="1" x1="914" x2="914" y1="80" y2="262"/><line stroke="#e2e8f0" stroke-width="1" x1="548" x2="914" y1="255.259" y2="255.259"/><line stroke="#e2e8f0" stroke-width="1" x1="548" x2="914" y1="187.852" y2="187.852"/><line stroke="#e2e8f0" stroke-width="1" x1="548" x2="914" y1="120.444" y2="120.444"/><line stroke="#334155" stroke-width="1.5" x1="548" x2="914" y1="187.852" y2="187.852"/><line stroke="#334155" stroke-width="1" x1="548" x2="548" y1="183.852" y2="191.852"/><text fill="#111827" font-size="11" text-anchor="middle" x="548" y="282"><tspan dy="0" x="548">-2</tspan></text><line stroke="#334155" stroke-width="1" x1="639.5" x2="639.5" y1="183.852" y2="191.852"/><text fill="#111827" font-size="11" text-anchor="middle" x="639.5" y="282"><tspan dy="0" x="639.5">-1</tspan></text><line stroke="#334155" stroke-width="1" x1="731" x2="731" y1="183.852" y2="191.852"/><text fill="#111827" font-size="11" text-anchor="middle" x="731" y="282"><tspan dy="0" x="731">0</tspan></text><line stroke="#334155" stroke-width="1" x1="822.5" x2="822.5" y1="183.852" y2="191.852"/><text fill="#111827" font-size="11" text-anchor="middle" x="822.5" y="282"><tspan dy="0" x="822.5">1</tspan></text><line stroke="#334155" stroke-width="1" x1="914" x2="914" y1="183.852" y2="191.852"/><text fill="#111827" font-size="11" text-anchor="middle" x="914" y="282"><tspan dy="0" x="914">2</tspan></text><text class="bvlp-axis-label" fill="#111827" font-size="13" text-anchor="end" x="914" y="301"><tspan dy="0" x="914">x</tspan></text><line stroke="#334155" stroke-width="1.5" x1="731" x2="731" y1="80" y2="262"/><line stroke="#334155" stroke-width="1" x1="727" x2="735" y1="255.259" y2="255.259"/><text fill="#111827" font-size="11" text-anchor="end" x="540" y="259.259"><tspan dy="0" x="540">-2</tspan></text><line stroke="#334155" stroke-width="1" x1="727" x2="735" y1="187.852" y2="187.852"/><text fill="#111827" font-size="11" text-anchor="end" x="540" y="191.852"><tspan dy="0" x="540">0</tspan></text><line stroke="#334155" stroke-width="1" x1="727" x2="735" y1="120.444" y2="120.444"/><text fill="#111827" font-size="11" text-anchor="end" x="540" y="124.444"><tspan dy="0" x="540">2</tspan></text><text class="bvlp-axis-label" fill="#111827" font-size="13" text-anchor="end" x="541" y="73"><tspan dy="0" x="541">y</tspan></text><g clip-path="url(#bvlp-discontinuity-gallery-panel-jump-panel-clip)"><g aria-label="Filled diamond marks the included right-hand height two." data-layer-id="jump-closed" data-layer-kind="closed-point" data-line-style="solid" role="group"><polygon fill="#c4b5fd" points="731,113.444 738,120.444 731,127.444 724,120.444" stroke="#7c3aed" stroke-width="2.25" vector-effect="non-scaling-stroke"/><text class="bvlp-annotation" fill="#111827" font-size="13" text-anchor="start" x="740" y="110.444"><tspan dy="0" x="740">right height 2</tspan></text></g><g aria-label="Solid lower branch approaches zero." data-layer-id="jump-left" data-layer-kind="piecewise-branch" data-line-style="solid" role="group"><path d="M548,187.852L557.15,187.852L566.3,187.852L575.45,187.852L584.6,187.852L593.75,187.852L602.9,187.852L612.05,187.852L621.2,187.852L630.35,187.852L639.5,187.852L648.65,187.852L657.8,187.852L666.95,187.852L676.1,187.852L685.25,187.852L694.4,187.852L703.55,187.852L712.7,187.852L721.85,187.852L731,187.852" data-segment-index="0" fill="none" stroke="#155e75" stroke-linecap="round" stroke-linejoin="round" stroke-width="3" vector-effect="non-scaling-stroke"/></g><g aria-label="Open circle marks the left-hand height zero." data-layer-id="jump-open" data-layer-kind="open-point" data-line-style="solid" role="group"><circle cx="731" cy="187.852" fill="#ffffff" r="6.5" stroke="#155e75" stroke-width="3" vector-effect="non-scaling-stroke"/><text class="bvlp-annotation" fill="#111827" font-size="13" text-anchor="start" x="740" y="177.852"><tspan dy="0" x="740">left height 0</tspan></text></g><g aria-label="Double-stroked upper branch starts at height two." data-layer-id="jump-right" data-layer-kind="piecewise-branch" data-line-style="double" role="group"><path d="M731,120.444L740.15,120.444L749.3,120.444L758.45,120.444L767.6,120.444L776.75,120.444L785.9,120.444L795.05,120.444L804.2,120.444L813.35,120.444L822.5,120.444L831.65,120.444L840.8,120.444L849.95,120.444L859.1,120.444L868.25,120.444L877.4,120.444L886.55,120.444L895.7,120.444L904.85,120.444L914,120.444" data-segment-index="0" fill="none" stroke="#7c3aed" stroke-linecap="round" stroke-linejoin="round" stroke-width="5" vector-effect="non-scaling-stroke"/><path d="M731,120.444L740.15,120.444L749.3,120.444L758.45,120.444L767.6,120.444L776.75,120.444L785.9,120.444L795.05,120.444L804.2,120.444L813.35,120.444L822.5,120.444L831.65,120.444L840.8,120.444L849.95,120.444L859.1,120.444L868.25,120.444L877.4,120.444L886.55,120.444L895.7,120.444L904.85,120.444L914,120.444" data-segment-index="0" fill="none" stroke="#ffffff" stroke-linecap="round" stroke-linejoin="round" stroke-width="2.5" vector-effect="non-scaling-stroke"/></g></g></g><g aria-labelledby="bvlp-discontinuity-gallery-panel-infinite-panel-title bvlp-discontinuity-gallery-panel-infinite-panel-desc" id="bvlp-discontinuity-gallery-panel-infinite-panel" role="group"><title id="bvlp-discontinuity-gallery-panel-infinite-panel-title">Infinite</title><desc id="bvlp-discontinuity-gallery-panel-infinite-panel-desc">Outputs become unbounded at a vertical asymptote.</desc><text class="bvlp-panel-title" fill="#111827" font-size="15" font-weight="700" text-anchor="middle" x="248" y="354"><tspan dy="0" x="248">Infinite</tspan></text><rect class="bvlp-panel-bg" fill="#ffffff" height="182" stroke="#cbd5e1" stroke-width="1" width="366" x="84" y="386"/><line stroke="#e2e8f0" stroke-width="1" x1="84" x2="84" y1="386" y2="568"/><line stroke="#e2e8f0" stroke-width="1" x1="175.5" x2="175.5" y1="386" y2="568"/><line stroke="#e2e8f0" stroke-width="1" x1="267" x2="267" y1="386" y2="568"/><line stroke="#e2e8f0" stroke-width="1" x1="358.5" x2="358.5" y1="386" y2="568"/><line stroke="#e2e8f0" stroke-width="1" x1="450" x2="450" y1="386" y2="568"/><line stroke="#e2e8f0" stroke-width="1" x1="84" x2="450" y1="561.259" y2="561.259"/><line stroke="#e2e8f0" stroke-width="1" x1="84" x2="450" y1="493.852" y2="493.852"/><line stroke="#e2e8f0" stroke-width="1" x1="84" x2="450" y1="426.444" y2="426.444"/><line stroke="#334155" stroke-width="1.5" x1="84" x2="450" y1="493.852" y2="493.852"/><line stroke="#334155" stroke-width="1" x1="84" x2="84" y1="489.852" y2="497.852"/><text fill="#111827" font-size="11" text-anchor="middle" x="84" y="588"><tspan dy="0" x="84">-2</tspan></text><line stroke="#334155" stroke-width="1" x1="175.5" x2="175.5" y1="489.852" y2="497.852"/><text fill="#111827" font-size="11" text-anchor="middle" x="175.5" y="588"><tspan dy="0" x="175.5">-1</tspan></text><line stroke="#334155" stroke-width="1" x1="267" x2="267" y1="489.852" y2="497.852"/><text fill="#111827" font-size="11" text-anchor="middle" x="267" y="588"><tspan dy="0" x="267">0</tspan></text><line stroke="#334155" stroke-width="1" x1="358.5" x2="358.5" y1="489.852" y2="497.852"/><text fill="#111827" font-size="11" text-anchor="middle" x="358.5" y="588"><tspan dy="0" x="358.5">1</tspan></text><line stroke="#334155" stroke-width="1" x1="450" x2="450" y1="489.852" y2="497.852"/><text fill="#111827" font-size="11" text-anchor="middle" x="450" y="588"><tspan dy="0" x="450">2</tspan></text><text class="bvlp-axis-label" fill="#111827" font-size="13" text-anchor="end" x="450" y="607"><tspan dy="0" x="450">x</tspan></text><line stroke="#334155" stroke-width="1.5" x1="267" x2="267" y1="386" y2="568"/><line stroke="#334155" stroke-width="1" x1="263" x2="271" y1="561.259" y2="561.259"/><text fill="#111827" font-size="11" text-anchor="end" x="76" y="565.259"><tspan dy="0" x="76">-2</tspan></text><line stroke="#334155" stroke-width="1" x1="263" x2="271" y1="493.852" y2="493.852"/><text fill="#111827" font-size="11" text-anchor="end" x="76" y="497.852"><tspan dy="0" x="76">0</tspan></text><line stroke="#334155" stroke-width="1" x1="263" x2="271" y1="426.444" y2="426.444"/><text fill="#111827" font-size="11" text-anchor="end" x="76" y="430.444"><tspan dy="0" x="76">2</tspan></text><text class="bvlp-axis-label" fill="#111827" font-size="13" text-anchor="end" x="77" y="379"><tspan dy="0" x="77">y</tspan></text><g clip-path="url(#bvlp-discontinuity-gallery-panel-infinite-panel-clip)"><g aria-label="Dashed vertical asymptote at zero." data-layer-id="infinite-asymptote" data-layer-kind="vertical-asymptote" data-line-style="dashed" role="group"><line fill="none" stroke="#b45309" stroke-dasharray="10 7" stroke-linecap="round" stroke-linejoin="round" stroke-width="2" vector-effect="non-scaling-stroke" x1="267" x2="267" y1="568" y2="386"/><text class="bvlp-annotation" fill="#111827" font-size="13" text-anchor="start" x="276" y="376"><tspan dy="0" x="276">x = 0</tspan></text></g><g aria-label="Solid reciprocal branch stops before zero." data-layer-id="infinite-left" data-layer-kind="piecewise-branch" data-line-style="solid" role="group"><path d="M84,510.704L93.15,511.591L102.3,512.576L111.45,513.678L120.6,514.917L129.75,516.321L138.9,517.926L148.05,519.778L157.2,521.938L166.35,524.492L175.5,527.556L184.65,531.3L193.8,535.981L202.95,542L212.1,550.025L216.675,555.131L221.25,561.259L225.368,568" data-segment-index="0" fill="none" stroke="#155e75" stroke-linecap="round" stroke-linejoin="round" stroke-width="3" vector-effect="non-scaling-stroke"/></g><g aria-label="Solid reciprocal branch begins after zero." data-layer-id="infinite-right" data-layer-kind="piecewise-branch" data-line-style="solid" role="group"><path d="M295.639,386L296.738,390.148L299.025,397.556L301.313,403.975L303.6,409.593L308.175,418.955L312.75,426.444L317.325,432.572L321.9,437.679L331.05,445.704L340.2,451.722L349.35,456.403L358.5,460.148L367.65,463.212L376.8,465.765L385.95,467.926L395.1,469.778L404.25,471.383L413.4,472.787L422.55,474.026L431.7,475.128L440.85,476.113L450,477" data-segment-index="0" fill="none" stroke="#155e75" stroke-linecap="round" stroke-linejoin="round" stroke-width="3" vector-effect="non-scaling-stroke"/></g></g></g><g aria-labelledby="bvlp-discontinuity-gallery-panel-oscillatory-panel-title bvlp-discontinuity-gallery-panel-oscillatory-panel-desc" id="bvlp-discontinuity-gallery-panel-oscillatory-panel" role="group"><title id="bvlp-discontinuity-gallery-panel-oscillatory-panel-title">Oscillatory</title><desc id="bvlp-discontinuity-gallery-panel-oscillatory-panel-desc">Outputs continue oscillating without settling.</desc><text class="bvlp-panel-title" fill="#111827" font-size="15" font-weight="700" text-anchor="middle" x="712" y="354"><tspan dy="0" x="712">Oscillatory</tspan></text><rect class="bvlp-panel-bg" fill="#ffffff" height="182" stroke="#cbd5e1" stroke-width="1" width="366" x="548" y="386"/><line stroke="#e2e8f0" stroke-width="1" x1="548" x2="548" y1="386" y2="568"/><line stroke="#e2e8f0" stroke-width="1" x1="639.5" x2="639.5" y1="386" y2="568"/><line stroke="#e2e8f0" stroke-width="1" x1="731" x2="731" y1="386" y2="568"/><line stroke="#e2e8f0" stroke-width="1" x1="822.5" x2="822.5" y1="386" y2="568"/><line stroke="#e2e8f0" stroke-width="1" x1="914" x2="914" y1="386" y2="568"/><line stroke="#e2e8f0" stroke-width="1" x1="548" x2="914" y1="561.259" y2="561.259"/><line stroke="#e2e8f0" stroke-width="1" x1="548" x2="914" y1="493.852" y2="493.852"/><line stroke="#e2e8f0" stroke-width="1" x1="548" x2="914" y1="426.444" y2="426.444"/><line stroke="#334155" stroke-width="1.5" x1="548" x2="914" y1="493.852" y2="493.852"/><line stroke="#334155" stroke-width="1" x1="548" x2="548" y1="489.852" y2="497.852"/><text fill="#111827" font-size="11" text-anchor="middle" x="548" y="588"><tspan dy="0" x="548">-2</tspan></text><line stroke="#334155" stroke-width="1" x1="639.5" x2="639.5" y1="489.852" y2="497.852"/><text fill="#111827" font-size="11" text-anchor="middle" x="639.5" y="588"><tspan dy="0" x="639.5">-1</tspan></text><line stroke="#334155" stroke-width="1" x1="731" x2="731" y1="489.852" y2="497.852"/><text fill="#111827" font-size="11" text-anchor="middle" x="731" y="588"><tspan dy="0" x="731">0</tspan></text><line stroke="#334155" stroke-width="1" x1="822.5" x2="822.5" y1="489.852" y2="497.852"/><text fill="#111827" font-size="11" text-anchor="middle" x="822.5" y="588"><tspan dy="0" x="822.5">1</tspan></text><line stroke="#334155" stroke-width="1" x1="914" x2="914" y1="489.852" y2="497.852"/><text fill="#111827" font-size="11" text-anchor="middle" x="914" y="588"><tspan dy="0" x="914">2</tspan></text><text class="bvlp-axis-label" fill="#111827" font-size="13" text-anchor="end" x="914" y="607"><tspan dy="0" x="914">x</tspan></text><line stroke="#334155" stroke-width="1.5" x1="731" x2="731" y1="386" y2="568"/><line stroke="#334155" stroke-width="1" x1="727" x2="735" y1="561.259" y2="561.259"/><text fill="#111827" font-size="11" text-anchor="end" x="540" y="565.259"><tspan dy="0" x="540">-2</tspan></text><line stroke="#334155" stroke-width="1" x1="727" x2="735" y1="493.852" y2="493.852"/><text fill="#111827" font-size="11" text-anchor="end" x="540" y="497.852"><tspan dy="0" x="540">0</tspan></text><line stroke="#334155" stroke-width="1" x1="727" x2="735" y1="426.444" y2="426.444"/><text fill="#111827" font-size="11" text-anchor="end" x="540" y="430.444"><tspan dy="0" x="540">2</tspan></text><text class="bvlp-axis-label" fill="#111827" font-size="13" text-anchor="end" x="541" y="379"><tspan dy="0" x="541">y</tspan></text><g clip-path="url(#bvlp-discontinuity-gallery-panel-oscillatory-panel-clip)"><g aria-label="Solid oscillating branch stops before zero." data-layer-id="oscillatory-left" data-layer-kind="piecewise-branch" data-line-style="solid" role="group"><path d="M548,510.01L557.15,510.783L566.3,511.628L575.45,512.554L584.6,513.572L593.75,514.693L602.9,515.93L612.05,517.296L621.2,518.799L630.35,520.442L639.5,522.213L648.65,524.057L657.8,525.836L666.95,527.215L676.1,527.401L680.675,526.529L685.25,524.499L689.825,520.654L692.112,517.761L694.4,514.023L696.687,509.264L698.975,503.31L701.262,496.03L703.55,487.429" data-segment-index="0" fill="none" stroke="#155e75" stroke-linecap="round" stroke-linejoin="round" stroke-width="3" vector-effect="non-scaling-stroke"/><path d="M703.55,487.429L708.125,468.345L709.269,464.304L710.412,461.351L711.556,460.149L712.128,460.46L712.7,461.533L713.272,463.487L713.844,466.44L714.416,470.488L714.987,475.695L715.559,482.065L716.131,489.505L717.275,506.462L717.847,514.869L718.419,522.021L718.705,524.734L718.991,526.63L719.277,527.515L719.562,527.197L719.848,525.499L720.134,522.28L720.42,517.462L720.706,511.061L720.992,503.228L721.278,494.29" data-segment-index="1" fill="none" stroke="#155e75" stroke-linecap="round" stroke-linejoin="round" stroke-width="3" vector-effect="non-scaling-stroke"/><path d="M721.278,494.29L721.85,475.516L722.136,467.497L722.422,461.955L722.708,460.174L722.994,463.259L723.28,471.767L723.566,485.23L723.852,501.654L724.137,517.241L724.423,526.713L724.709,524.785L724.995,509.112L725.281,484.149" data-segment-index="2" fill="none" stroke="#155e75" stroke-linecap="round" stroke-linejoin="round" stroke-width="3" vector-effect="non-scaling-stroke"/><path d="M725.281,484.149L725.567,463.311L725.853,464.258L726.139,492.975" data-segment-index="3" fill="none" stroke="#155e75" stroke-linecap="round" stroke-linejoin="round" stroke-width="3" vector-effect="non-scaling-stroke"/><path d="M726.139,492.975L726.425,524.621L726.711,514.458L726.997,468.179" data-segment-index="4" fill="none" stroke="#155e75" stroke-linecap="round" stroke-linejoin="round" stroke-width="3" vector-effect="non-scaling-stroke"/><path d="M726.997,468.179L727.283,477.182L727.569,527.533L727.855,469.289L728.141,512.436L728.427,465.527L728.712,518.966" data-segment-index="5" fill="none" stroke="#155e75" stroke-linecap="round" stroke-linejoin="round" stroke-width="3" vector-effect="non-scaling-stroke"/><path d="M728.998,527.119L729.284,496.337" data-segment-index="6" fill="none" stroke="#155e75" stroke-linecap="round" stroke-linejoin="round" stroke-width="3" vector-effect="non-scaling-stroke"/><path d="M729.856,460.355L730.142,488.892" data-segment-index="7" fill="none" stroke="#155e75" stroke-linecap="round" stroke-linejoin="round" stroke-width="3" vector-effect="non-scaling-stroke"/><path d="M730.142,488.892L730.428,501.264L730.714,479.359L731,499.388" data-segment-index="8" fill="none" stroke="#155e75" stroke-linecap="round" stroke-linejoin="round" stroke-width="3" vector-effect="non-scaling-stroke"/></g><g aria-label="Solid oscillating branch begins after zero." data-layer-id="oscillatory-right" data-layer-kind="piecewise-branch" data-line-style="solid" role="group"><path d="M731.286,508.345L731.572,486.44" data-segment-index="0" fill="none" stroke="#155e75" stroke-linecap="round" stroke-linejoin="round" stroke-width="3" vector-effect="non-scaling-stroke"/><path d="M731.572,486.44L731.858,498.812L732.144,527.349" data-segment-index="1" fill="none" stroke="#155e75" stroke-linecap="round" stroke-linejoin="round" stroke-width="3" vector-effect="non-scaling-stroke"/><path d="M732.716,491.367L733.002,460.585" data-segment-index="2" fill="none" stroke="#155e75" stroke-linecap="round" stroke-linejoin="round" stroke-width="3" vector-effect="non-scaling-stroke"/><path d="M733.288,468.738L733.573,522.176L733.859,475.267L734.145,518.415L734.431,460.171L734.717,510.522L735.003,519.525L735.289,473.246" data-segment-index="3" fill="none" stroke="#155e75" stroke-linecap="round" stroke-linejoin="round" stroke-width="3" vector-effect="non-scaling-stroke"/><path d="M735.289,473.246L735.575,463.082L735.861,494.729" data-segment-index="4" fill="none" stroke="#155e75" stroke-linecap="round" stroke-linejoin="round" stroke-width="3" vector-effect="non-scaling-stroke"/><path d="M735.861,494.729L736.147,523.446L736.433,524.393L736.719,503.555L737.005,478.592" data-segment-index="5" fill="none" stroke="#155e75" stroke-linecap="round" stroke-linejoin="round" stroke-width="3" vector-effect="non-scaling-stroke"/><path d="M737.005,478.592L737.291,462.918L737.577,460.991L737.863,470.463L738.148,486.049L738.434,502.473L738.72,515.936L739.006,524.445L739.292,527.53L739.578,525.749L739.864,520.207L740.15,512.187L740.722,493.413" data-segment-index="6" fill="none" stroke="#155e75" stroke-linecap="round" stroke-linejoin="round" stroke-width="3" vector-effect="non-scaling-stroke"/><path d="M740.722,493.413L741.008,484.475L741.294,476.643L741.58,470.242L741.866,465.423L742.152,462.205L742.438,460.507L742.723,460.189L743.009,461.074L743.295,462.97L743.581,465.683L744.153,472.834L744.725,481.242L745.869,498.199" data-segment-index="7" fill="none" stroke="#155e75" stroke-linecap="round" stroke-linejoin="round" stroke-width="3" vector-effect="non-scaling-stroke"/><path d="M745.869,498.199L746.441,505.638L747.013,512.008L747.584,517.216L748.156,521.264L748.728,524.216L749.3,526.171L749.872,527.244L750.444,527.555L751.588,526.353L752.731,523.399L753.875,519.359L758.45,500.275" data-segment-index="8" fill="none" stroke="#155e75" stroke-linecap="round" stroke-linejoin="round" stroke-width="3" vector-effect="non-scaling-stroke"/><path d="M758.45,500.275L760.738,491.674" data-segment-index="9" fill="none" stroke="#155e75" stroke-linecap="round" stroke-linejoin="round" stroke-width="3" vector-effect="non-scaling-stroke"/><path d="M760.738,491.674L763.025,484.394L765.313,478.44L767.6,473.681L769.888,469.942L772.175,467.05L776.75,463.205L781.325,461.174L785.9,460.303L795.05,460.488L804.2,461.868L813.35,463.647L822.5,465.491L831.65,467.261L840.8,468.905L849.95,470.408L859.1,471.773L868.25,473.01L877.4,474.132L886.55,475.15L895.7,476.076L904.85,476.921L914,477.693" data-segment-index="10" fill="none" stroke="#155e75" stroke-linecap="round" stroke-linejoin="round" stroke-width="3" vector-effect="non-scaling-stroke"/></g></g></g></svg>
