<svg aria-labelledby="bvlp-ivt-root-title bvlp-ivt-root-description" class="bvlp-svg" data-bvlp-scene="ivt-root" data-grayscale-safe="true" focusable="false" height="582" preserveAspectRatio="xMidYMid meet" role="img" style="display:block;height:auto;max-width:100%;width:100%" viewBox="0 0 960 582" width="100%" xmlns="http://www.w3.org/2000/svg"><title id="bvlp-ivt-root-title">A root guaranteed by the Intermediate Value Theorem</title><desc id="bvlp-ivt-root-description">f(0) is negative and f(1) is positive, so continuity guarantees a root between them. The continuous curve f(x) = x cubed + x - 1 is shown on the closed interval from 0 to 1. A filled circle at (0, -1) lies below the x-axis and a filled square at (1, 1) lies above it. The curve crosses the axis at a filled diamond c approximately 0.6823, illustrating a root whose existence the Intermediate Value Theorem guarantees. The negative endpoint is a filled circle, the positive endpoint is a filled square, and the root is a filled diamond, all with text labels. Caption: Continuity and opposite endpoint signs guarantee at least one root between 0 and 1. Reading order: ivt-function: Heavy solid continuous curve.; left-endpoint: Filled circle at the negative left endpoint.; right-endpoint: Filled square at the positive right endpoint.; root: Filled diamond marks the displayed root.; ivt-note: Text states the sign-change argument..</desc><style>.bvlp-svg text{font-family:ui-sans-serif,system-ui,-apple-system,"Segoe UI",sans-serif}.bvlp-svg .bvlp-axis-label,.bvlp-svg .bvlp-panel-title{font-weight:700}.bvlp-svg .bvlp-annotation{paint-order:stroke;stroke:#fff;stroke-width:4px;stroke-linejoin:round}.bvlp-svg path,.bvlp-svg line,.bvlp-svg polyline,.bvlp-svg polygon,.bvlp-svg circle,.bvlp-svg ellipse{shape-rendering:geometricPrecision}@media print{.bvlp-svg{color-adjust:exact;print-color-adjust:exact}.bvlp-svg .bvlp-panel-bg{fill:#fff}.bvlp-svg text{fill:#000!important}}</style><defs><pattern height="10" id="bvlp-ivt-root-pattern-diagonal" patternUnits="userSpaceOnUse" width="10"><rect fill="#f8fafc" height="10" width="10"/><path d="M-2 10L10-2M3 15L15 3" fill="none" stroke="#64748b" stroke-width="1.25"/></pattern><pattern height="10" id="bvlp-ivt-root-pattern-crosshatch" patternUnits="userSpaceOnUse" width="10"><rect fill="#f8fafc" height="10" width="10"/><path d="M-2 10L10-2M3 15L15 3M-2 0L10 12M3-5L15 7" fill="none" stroke="#64748b" stroke-width="1"/></pattern><pattern height="9" id="bvlp-ivt-root-pattern-dots" patternUnits="userSpaceOnUse" width="9"><rect fill="#f8fafc" height="9" width="9"/><circle cx="4.5" cy="4.5" fill="#64748b" r="1.35"/></pattern><marker id="bvlp-ivt-root-arrow" markerHeight="7" markerUnits="strokeWidth" markerWidth="7" orient="auto-start-reverse" refX="8.5" refY="5" viewBox="0 0 10 10"><path d="M0 0L10 5L0 10Z" fill="#111827"/></marker></defs><defs><clipPath id="bvlp-ivt-root-panel-default-clip"><rect height="460" width="830" x="84" y="46"/></clipPath></defs><g aria-labelledby="bvlp-ivt-root-panel-default-title bvlp-ivt-root-panel-default-desc" id="bvlp-ivt-root-panel-default" role="group"><title id="bvlp-ivt-root-panel-default-title">A root guaranteed by the Intermediate Value Theorem</title><desc id="bvlp-ivt-root-panel-default-desc">f(0) is negative and f(1) is positive, so continuity guarantees a root between them.</desc><rect class="bvlp-panel-bg" fill="#ffffff" height="460" stroke="#cbd5e1" stroke-width="1" width="830" x="84" y="46"/><line stroke="#e2e8f0" stroke-width="1" x1="84" x2="84" y1="46" y2="506"/><line stroke="#e2e8f0" stroke-width="1" x1="167" x2="167" y1="46" y2="506"/><line stroke="#e2e8f0" stroke-width="1" x1="250" x2="250" y1="46" y2="506"/><line stroke="#e2e8f0" stroke-width="1" x1="333" x2="333" y1="46" y2="506"/><line stroke="#e2e8f0" stroke-width="1" x1="416" x2="416" y1="46" y2="506"/><line stroke="#e2e8f0" stroke-width="1" x1="499" x2="499" y1="46" y2="506"/><line stroke="#e2e8f0" stroke-width="1" x1="582" x2="582" y1="46" y2="506"/><line stroke="#e2e8f0" stroke-width="1" x1="665" x2="665" y1="46" y2="506"/><line stroke="#e2e8f0" stroke-width="1" x1="748" x2="748" y1="46" y2="506"/><line stroke="#e2e8f0" stroke-width="1" x1="831" x2="831" y1="46" y2="506"/><line stroke="#e2e8f0" stroke-width="1" x1="914" x2="914" y1="46" y2="506"/><line stroke="#e2e8f0" stroke-width="1" x1="84" x2="914" y1="476" y2="476"/><line stroke="#e2e8f0" stroke-width="1" x1="84" x2="914" y1="376" y2="376"/><line stroke="#e2e8f0" stroke-width="1" x1="84" x2="914" y1="276" y2="276"/><line stroke="#e2e8f0" stroke-width="1" x1="84" x2="914" y1="176" y2="176"/><line stroke="#e2e8f0" stroke-width="1" x1="84" x2="914" y1="76" y2="76"/><line stroke="#334155" stroke-width="1.5" x1="84" x2="914" y1="276" y2="276"/><line stroke="#334155" stroke-width="1" x1="84" x2="84" y1="272" y2="280"/><text fill="#111827" font-size="11" text-anchor="middle" x="84" y="526"><tspan dy="0" x="84">0</tspan></text><line stroke="#334155" stroke-width="1" x1="167" x2="167" y1="272" y2="280"/><text fill="#111827" font-size="11" text-anchor="middle" x="167" y="526"><tspan dy="0" x="167">0.1</tspan></text><line stroke="#334155" stroke-width="1" x1="250" x2="250" y1="272" y2="280"/><text fill="#111827" font-size="11" text-anchor="middle" x="250" y="526"><tspan dy="0" x="250">0.2</tspan></text><line stroke="#334155" stroke-width="1" x1="333" x2="333" y1="272" y2="280"/><text fill="#111827" font-size="11" text-anchor="middle" x="333" y="526"><tspan dy="0" x="333">0.3</tspan></text><line stroke="#334155" stroke-width="1" x1="416" x2="416" y1="272" y2="280"/><text fill="#111827" font-size="11" text-anchor="middle" x="416" y="526"><tspan dy="0" x="416">0.4</tspan></text><line stroke="#334155" stroke-width="1" x1="499" x2="499" y1="272" y2="280"/><text fill="#111827" font-size="11" text-anchor="middle" x="499" y="526"><tspan dy="0" x="499">0.5</tspan></text><line stroke="#334155" stroke-width="1" x1="582" x2="582" y1="272" y2="280"/><text fill="#111827" font-size="11" text-anchor="middle" x="582" y="526"><tspan dy="0" x="582">0.6</tspan></text><line stroke="#334155" stroke-width="1" x1="665" x2="665" y1="272" y2="280"/><text fill="#111827" font-size="11" text-anchor="middle" x="665" y="526"><tspan dy="0" x="665">0.7</tspan></text><line stroke="#334155" stroke-width="1" x1="748" x2="748" y1="272" y2="280"/><text fill="#111827" font-size="11" text-anchor="middle" x="748" y="526"><tspan dy="0" x="748">0.8</tspan></text><line stroke="#334155" stroke-width="1" x1="831" x2="831" y1="272" y2="280"/><text fill="#111827" font-size="11" text-anchor="middle" x="831" y="526"><tspan dy="0" x="831">0.9</tspan></text><line stroke="#334155" stroke-width="1" x1="914" x2="914" y1="272" y2="280"/><text fill="#111827" font-size="11" text-anchor="middle" x="914" y="526"><tspan dy="0" x="914">1</tspan></text><text class="bvlp-axis-label" fill="#111827" font-size="13" text-anchor="end" x="914" y="545"><tspan dy="0" x="914">x</tspan></text><line stroke="#334155" stroke-width="1.5" x1="84" x2="84" y1="46" y2="506"/><line stroke="#334155" stroke-width="1" x1="80" x2="88" y1="476" y2="476"/><text fill="#111827" font-size="11" text-anchor="end" x="76" y="480"><tspan dy="0" x="76">-1</tspan></text><line stroke="#334155" stroke-width="1" x1="80" x2="88" y1="376" y2="376"/><text fill="#111827" font-size="11" text-anchor="end" x="76" y="380"><tspan dy="0" x="76">-0.5</tspan></text><line stroke="#334155" stroke-width="1" x1="80" x2="88" y1="276" y2="276"/><text fill="#111827" font-size="11" text-anchor="end" x="76" y="280"><tspan dy="0" x="76">0</tspan></text><line stroke="#334155" stroke-width="1" x1="80" x2="88" y1="176" y2="176"/><text fill="#111827" font-size="11" text-anchor="end" x="76" y="180"><tspan dy="0" x="76">0.5</tspan></text><line stroke="#334155" stroke-width="1" x1="80" x2="88" y1="76" y2="76"/><text fill="#111827" font-size="11" text-anchor="end" x="76" y="80"><tspan dy="0" x="76">1</tspan></text><text class="bvlp-axis-label" fill="#111827" font-size="13" text-anchor="start" x="84" y="39"><tspan dy="0" x="84">f(x)</tspan></text><g clip-path="url(#bvlp-ivt-root-panel-default-clip)"><g aria-label="Heavy solid continuous curve." data-layer-id="ivt-function" data-layer-kind="function" data-line-style="solid" role="group"><path d="M84,476L125.5,465.975L167,455.8L208.5,445.325L250,434.4L291.5,422.875L333,410.6L374.5,397.425L416,383.2L457.5,367.775L499,351L540.5,332.725L582,312.8L623.5,291.075L665,267.4L706.5,241.625L748,213.6L789.5,183.175L831,150.2L872.5,114.525L914,76" data-segment-index="0" fill="none" stroke="#155e75" stroke-linecap="round" stroke-linejoin="round" stroke-width="3" vector-effect="non-scaling-stroke"/></g><g aria-label="Text states the sign-change argument." data-layer-id="ivt-note" data-layer-kind="annotation" data-line-style="solid" role="group"><line stroke="#111827" stroke-opacity="0.55" stroke-width="1" x1="283.2" x2="294.2" y1="212" y2="203"/><circle cx="283.2" cy="212" fill="#111827" r="2.5"/><text class="bvlp-annotation" data-bvlp-label-box="294.2,172.32,279.12,30.68" fill="#111827" font-size="13" text-anchor="start" x="294.2" y="185.32"><tspan dy="0" x="294.2">f(0) &lt; 0 &lt; f(1), so a root exists in</tspan><tspan dy="1.18em" x="294.2">(0, 1)</tspan></text></g><g aria-label="Filled circle at the negative left endpoint." data-layer-id="left-endpoint" data-layer-kind="closed-point" data-line-style="solid" role="group"><circle cx="84" cy="476" fill="#fca5a5" r="6" stroke="#b91c1c" stroke-width="2.25" vector-effect="non-scaling-stroke"/><text class="bvlp-annotation" data-bvlp-label-box="95,451.66,72.03,15.34" fill="#111827" font-size="13" text-anchor="start" x="95" y="464.66"><tspan dy="0" x="95">f(0) = -1</tspan></text></g><g aria-label="Filled square at the positive right endpoint." data-layer-id="right-endpoint" data-layer-kind="closed-point" data-line-style="solid" role="group"><rect fill="#86efac" height="12" stroke="#15803d" stroke-width="2.25" vector-effect="non-scaling-stroke" width="12" x="908" y="70"/><text class="bvlp-annotation" data-bvlp-label-box="841.64,54,64.36,15.34" fill="#111827" font-size="13" text-anchor="start" x="841.64" y="67"><tspan dy="0" x="841.64">f(1) = 1</tspan></text></g><g aria-label="Filled diamond marks the displayed root." data-layer-id="root" data-layer-kind="closed-point" data-line-style="solid" role="group"><polygon fill="#fcd34d" points="650.332,269 657.332,276 650.332,283 643.332,276" stroke="#b45309" stroke-width="2.25" vector-effect="non-scaling-stroke"/><text class="bvlp-annotation" data-bvlp-label-box="661.332,251.66,194.75,15.34" fill="#111827" font-size="13" text-anchor="start" x="661.332" y="264.66"><tspan dy="0" x="661.332">c is approximately 0.6823</tspan></text></g></g></g></svg>
