<svg aria-labelledby="bvlp-precalculus-u2-l1-v1-title bvlp-precalculus-u2-l1-v1-description" class="bvlp-svg" data-bvlp-scene="precalculus-u2-l1-v1" data-grayscale-safe="true" focusable="false" height="558" preserveAspectRatio="xMidYMid meet" role="img" style="display:block;height:auto;max-width:100%;width:100%" viewBox="0 0 960 558" width="100%" xmlns="http://www.w3.org/2000/svg"><title id="bvlp-precalculus-u2-l1-v1-title">Quantities, variables, and dependency · Quantity dependency map</title><desc id="bvlp-precalculus-u2-l1-v1-description">Follow the foundation example from its given information to the conclusion. The labels identify the mathematical feature that makes the result valid: The fixed fee and hourly rate have different parameter meanings. Follow the foundation example from its given information to the conclusion. The labels identify the mathematical feature that makes the result valid: The fixed fee and hourly rate have different parameter meanings. The figure uses concrete points, curves, arrows, intervals, or matrix structure instead of relying on color alone. Labels, point shapes, line styles, arrows, and position carry the mathematical meaning; color is supplementary. Caption: Follow the foundation example from its given information to the conclusion. The labels identify the mathematical feature that makes the result valid: The fixed fee and hourly rate have different parameter meanings. Reading order: rental-cost: C(h)=18+7h dollars; solid curve.; fixed-fee: Filled diamond marks At zero hours the fixed fee is 18 dollars..; one-hour: Filled square marks One hour costs 25 dollars..; rate-rise: A one-hour increase raises cost by 7 dollars.; formula: Label: C(h)=18+7h.; meaning: Label: 18 dollars fixed + 7 dollars per hour..</desc><style>.bvlp-svg text{font-family:ui-sans-serif,system-ui,-apple-system,"Segoe UI",sans-serif}.bvlp-svg .bvlp-axis-label,.bvlp-svg .bvlp-panel-title{font-weight:700}.bvlp-svg .bvlp-annotation{paint-order:stroke;stroke:#fff;stroke-width:4px;stroke-linejoin:round}.bvlp-svg path,.bvlp-svg line,.bvlp-svg polyline,.bvlp-svg polygon,.bvlp-svg circle,.bvlp-svg ellipse{shape-rendering:geometricPrecision}@media print{.bvlp-svg{color-adjust:exact;print-color-adjust:exact}.bvlp-svg .bvlp-panel-bg{fill:#fff}.bvlp-svg text{fill:#000!important}}</style><defs><pattern height="10" id="bvlp-precalculus-u2-l1-v1-pattern-diagonal" patternUnits="userSpaceOnUse" width="10"><rect fill="#f8fafc" height="10" width="10"/><path d="M-2 10L10-2M3 15L15 3" fill="none" stroke="#64748b" stroke-width="1.25"/></pattern><pattern height="10" id="bvlp-precalculus-u2-l1-v1-pattern-crosshatch" patternUnits="userSpaceOnUse" width="10"><rect fill="#f8fafc" height="10" width="10"/><path d="M-2 10L10-2M3 15L15 3M-2 0L10 12M3-5L15 7" fill="none" stroke="#64748b" stroke-width="1"/></pattern><pattern height="9" id="bvlp-precalculus-u2-l1-v1-pattern-dots" patternUnits="userSpaceOnUse" width="9"><rect fill="#f8fafc" height="9" width="9"/><circle cx="4.5" cy="4.5" fill="#64748b" r="1.35"/></pattern><marker id="bvlp-precalculus-u2-l1-v1-arrow" markerHeight="7" markerUnits="strokeWidth" markerWidth="7" orient="auto-start-reverse" refX="8.5" refY="5" viewBox="0 0 10 10"><path d="M0 0L10 5L0 10Z" fill="#111827"/></marker></defs><defs><clipPath id="bvlp-precalculus-u2-l1-v1-panel-default-clip"><rect height="436" width="830" x="84" y="46"/></clipPath></defs><g aria-labelledby="bvlp-precalculus-u2-l1-v1-panel-default-title bvlp-precalculus-u2-l1-v1-panel-default-desc" id="bvlp-precalculus-u2-l1-v1-panel-default" role="group"><title id="bvlp-precalculus-u2-l1-v1-panel-default-title">Quantities, variables, and dependency · Quantity dependency map</title><desc id="bvlp-precalculus-u2-l1-v1-panel-default-desc">Follow the foundation example from its given information to the conclusion. The labels identify the mathematical feature that makes the result valid: The fixed fee and hourly rate have different parameter meanings.</desc><rect class="bvlp-panel-bg" fill="#ffffff" height="436" stroke="#cbd5e1" stroke-width="1" width="830" x="84" y="46"/><line stroke="#e2e8f0" stroke-width="1" x1="143.286" x2="143.286" y1="46" y2="482"/><line stroke="#e2e8f0" stroke-width="1" x1="261.857" x2="261.857" y1="46" y2="482"/><line stroke="#e2e8f0" stroke-width="1" x1="380.429" x2="380.429" y1="46" y2="482"/><line stroke="#e2e8f0" stroke-width="1" x1="499" x2="499" y1="46" y2="482"/><line stroke="#e2e8f0" stroke-width="1" x1="617.571" x2="617.571" y1="46" y2="482"/><line stroke="#e2e8f0" stroke-width="1" x1="736.143" x2="736.143" y1="46" y2="482"/><line stroke="#e2e8f0" stroke-width="1" x1="854.714" x2="854.714" y1="46" y2="482"/><line stroke="#e2e8f0" stroke-width="1" x1="84" x2="914" y1="482" y2="482"/><line stroke="#e2e8f0" stroke-width="1" x1="84" x2="914" y1="417.882" y2="417.882"/><line stroke="#e2e8f0" stroke-width="1" x1="84" x2="914" y1="353.765" y2="353.765"/><line stroke="#e2e8f0" stroke-width="1" x1="84" x2="914" y1="289.647" y2="289.647"/><line stroke="#e2e8f0" stroke-width="1" x1="84" x2="914" y1="225.529" y2="225.529"/><line stroke="#e2e8f0" stroke-width="1" x1="84" x2="914" y1="161.412" y2="161.412"/><line stroke="#e2e8f0" stroke-width="1" x1="84" x2="914" y1="97.294" y2="97.294"/><line stroke="#334155" stroke-width="1.5" x1="84" x2="914" y1="482" y2="482"/><line stroke="#334155" stroke-width="1" x1="143.286" x2="143.286" y1="478" y2="486"/><text fill="#111827" font-size="11" text-anchor="middle" x="143.286" y="502"><tspan dy="0" x="143.286">0</tspan></text><line stroke="#334155" stroke-width="1" x1="261.857" x2="261.857" y1="478" y2="486"/><text fill="#111827" font-size="11" text-anchor="middle" x="261.857" y="502"><tspan dy="0" x="261.857">1</tspan></text><line stroke="#334155" stroke-width="1" x1="380.429" x2="380.429" y1="478" y2="486"/><text fill="#111827" font-size="11" text-anchor="middle" x="380.429" y="502"><tspan dy="0" x="380.429">2</tspan></text><line stroke="#334155" stroke-width="1" x1="499" x2="499" y1="478" y2="486"/><text fill="#111827" font-size="11" text-anchor="middle" x="499" y="502"><tspan dy="0" x="499">3</tspan></text><line stroke="#334155" stroke-width="1" x1="617.571" x2="617.571" y1="478" y2="486"/><text fill="#111827" font-size="11" text-anchor="middle" x="617.571" y="502"><tspan dy="0" x="617.571">4</tspan></text><line stroke="#334155" stroke-width="1" x1="736.143" x2="736.143" y1="478" y2="486"/><text fill="#111827" font-size="11" text-anchor="middle" x="736.143" y="502"><tspan dy="0" x="736.143">5</tspan></text><line stroke="#334155" stroke-width="1" x1="854.714" x2="854.714" y1="478" y2="486"/><text fill="#111827" font-size="11" text-anchor="middle" x="854.714" y="502"><tspan dy="0" x="854.714">6</tspan></text><text class="bvlp-axis-label" fill="#111827" font-size="13" text-anchor="end" x="914" y="521"><tspan dy="0" x="914">hours h</tspan></text><line stroke="#334155" stroke-width="1.5" x1="143.286" x2="143.286" y1="46" y2="482"/><line stroke="#334155" stroke-width="1" x1="139.286" x2="147.286" y1="482" y2="482"/><text fill="#111827" font-size="11" text-anchor="end" x="76" y="486"><tspan dy="0" x="76">0</tspan></text><line stroke="#334155" stroke-width="1" x1="139.286" x2="147.286" y1="417.882" y2="417.882"/><text fill="#111827" font-size="11" text-anchor="end" x="76" y="421.882"><tspan dy="0" x="76">10</tspan></text><line stroke="#334155" stroke-width="1" x1="139.286" x2="147.286" y1="353.765" y2="353.765"/><text fill="#111827" font-size="11" text-anchor="end" x="76" y="357.765"><tspan dy="0" x="76">20</tspan></text><line stroke="#334155" stroke-width="1" x1="139.286" x2="147.286" y1="289.647" y2="289.647"/><text fill="#111827" font-size="11" text-anchor="end" x="76" y="293.647"><tspan dy="0" x="76">30</tspan></text><line stroke="#334155" stroke-width="1" x1="139.286" x2="147.286" y1="225.529" y2="225.529"/><text fill="#111827" font-size="11" text-anchor="end" x="76" y="229.529"><tspan dy="0" x="76">40</tspan></text><line stroke="#334155" stroke-width="1" x1="139.286" x2="147.286" y1="161.412" y2="161.412"/><text fill="#111827" font-size="11" text-anchor="end" x="76" y="165.412"><tspan dy="0" x="76">50</tspan></text><line stroke="#334155" stroke-width="1" x1="139.286" x2="147.286" y1="97.294" y2="97.294"/><text fill="#111827" font-size="11" text-anchor="end" x="76" y="101.294"><tspan dy="0" x="76">60</tspan></text><text class="bvlp-axis-label" fill="#111827" font-size="13" text-anchor="start" x="84" y="39"><tspan dy="0" x="84">cost C(h), dollars</tspan></text><g clip-path="url(#bvlp-precalculus-u2-l1-v1-panel-default-clip)"><g aria-label="A one-hour increase raises cost by 7 dollars." data-layer-id="rate-rise" data-layer-kind="segment" data-line-style="dashed" role="group"><line fill="none" stroke="#64748b" stroke-dasharray="10 7" stroke-linecap="round" stroke-linejoin="round" stroke-width="3" vector-effect="non-scaling-stroke" x1="143.286" x2="261.857" y1="366.588" y2="321.706"/></g><g aria-label="C(h)=18+7h dollars; solid curve." data-layer-id="rental-cost" data-layer-kind="sampled-series" data-line-style="solid" role="group"><path d="M143.286,366.588L152.179,363.222L161.071,359.856L169.964,356.49L178.857,353.124L187.75,349.757L196.643,346.391L205.536,343.025L214.429,339.659L223.321,336.293L232.214,332.926L241.107,329.56L250,326.194L258.893,322.828L267.786,319.462L276.679,316.096L285.571,312.729L294.464,309.363L303.357,305.997L312.25,302.631L321.143,299.265L330.036,295.899L338.929,292.532L347.821,289.166L356.714,285.8L365.607,282.434L374.5,279.068L383.393,275.701L392.286,272.335L401.179,268.969L410.071,265.603L418.964,262.237L427.857,258.871L436.75,255.504L445.643,252.138L454.536,248.772L463.429,245.406L472.321,242.04L481.214,238.674L490.107,235.307L499,231.941L507.893,228.575L516.786,225.209L525.679,221.843L534.571,218.476L543.464,215.11L552.357,211.744L561.25,208.378L570.143,205.012L579.036,201.646L587.929,198.279L596.821,194.913L605.714,191.547L614.607,188.181L623.5,184.815L632.393,181.449L641.286,178.082L650.179,174.716L659.071,171.35L667.964,167.984L676.857,164.618L685.75,161.251L694.643,157.885L703.536,154.519L712.429,151.153L721.321,147.787L730.214,144.421L739.107,141.054L748,137.688L756.893,134.322L765.786,130.956L774.679,127.59L783.571,124.224L792.464,120.857L801.357,117.491L810.25,114.125L819.143,110.759L828.036,107.393L836.929,104.026L845.821,100.66L854.714,97.294" data-segment-index="0" fill="none" stroke="#155e75" stroke-linecap="round" stroke-linejoin="round" stroke-width="3" vector-effect="non-scaling-stroke"/><text class="bvlp-annotation" data-bvlp-label-box="154.286,342.248,141.06,15.34" fill="#111827" font-size="13" text-anchor="start" x="154.286" y="355.248"><tspan dy="0" x="154.286">C(h)=18+7h dollars</tspan></text></g><g aria-label="Filled diamond marks At zero hours the fixed fee is 18 dollars.." data-layer-id="fixed-fee" data-layer-kind="closed-point" data-line-style="solid" role="group"><polygon fill="#fcd34d" points="143.286,359.588 150.286,366.588 143.286,373.588 136.286,366.588" stroke="#b45309" stroke-width="2.25" vector-effect="non-scaling-stroke"/><text class="bvlp-annotation" data-bvlp-label-box="154.286,376.588,210.09,30.68" fill="#111827" font-size="13" text-anchor="start" x="154.286" y="389.588"><tspan dy="0" x="154.286">At zero hours the fixed fee</tspan><tspan dy="1.18em" x="154.286">is 18 dollars.</tspan></text></g><g aria-label="Filled square marks One hour costs 25 dollars.." data-layer-id="one-hour" data-layer-kind="closed-point" data-line-style="solid" role="group"><rect fill="#c4b5fd" height="12" stroke="#7c3aed" stroke-width="2.25" vector-effect="non-scaling-stroke" width="12" x="255.857" y="315.706"/><text class="bvlp-annotation" data-bvlp-label-box="272.857,297.366,202.42,15.34" fill="#111827" font-size="13" text-anchor="start" x="272.857" y="310.366"><tspan dy="0" x="272.857">One hour costs 25 dollars.</tspan></text></g><g aria-label="Label: C(h)=18+7h." data-layer-id="formula" data-layer-kind="label" data-line-style="solid" role="group"><text class="bvlp-annotation" data-bvlp-label-box="124.2,82.622,85.6,16.52" fill="#111827" font-size="14" font-weight="650" text-anchor="middle" x="167" y="96.622"><tspan dy="0" x="167">C(h)=18+7h</tspan></text></g><g aria-label="Label: 18 dollars fixed + 7 dollars per hour." data-layer-id="meaning" data-layer-kind="label" data-line-style="solid" role="group"><text class="bvlp-annotation" data-bvlp-label-box="92,112.833,234.28,33.04" fill="#111827" font-size="14" font-weight="650" text-anchor="middle" x="209.14" y="126.833"><tspan dy="0" x="209.14">18 dollars fixed + 7 dollars</tspan><tspan dy="1.18em" x="209.14">per hour</tspan></text></g></g></g></svg>
