<svg aria-labelledby="bvlp-precalculus-u6-l1-v1-title bvlp-precalculus-u6-l1-v1-description" class="bvlp-svg" data-bvlp-scene="precalculus-u6-l1-v1" data-grayscale-safe="true" focusable="false" height="558" preserveAspectRatio="xMidYMid meet" role="img" style="display:block;height:auto;max-width:100%;width:100%" viewBox="0 0 960 558" width="100%" xmlns="http://www.w3.org/2000/svg"><title id="bvlp-precalculus-u6-l1-v1-title">Rational functions and their domains · Numerator-denominator role map</title><desc id="bvlp-precalculus-u6-l1-v1-description">Follow the foundation example from its given information to the conclusion. The labels identify the mathematical feature that makes the result valid: The denominator creates three continuity intervals. Follow the foundation example from its given information to the conclusion. The labels identify the mathematical feature that makes the result valid: The denominator creates three continuity intervals. The figure uses concrete points, curves, arrows, intervals, or matrix structure instead of relying on color alone. Labels, point shapes, line styles, arrows, and position carry the mathematical meaning; color is supplementary. Caption: Follow the foundation example from its given information to the conclusion. The labels identify the mathematical feature that makes the result valid: The denominator creates three continuity intervals. Reading order: left: left branch; solid curve.; middle: middle branch; solid curve.; right: right branch; solid curve.; asymptote-negative-two: Excluded input and vertical asymptote x=-2.; asymptote-three: Excluded input and vertical asymptote x=3.; horizontal-asymptote: Horizontal asymptote y=0.; domain: Label: Domain excludes x=-2 and x=3; three continuity intervals...</desc><style>.bvlp-svg text{font-family:ui-sans-serif,system-ui,-apple-system,"Segoe UI",sans-serif}.bvlp-svg .bvlp-axis-label,.bvlp-svg .bvlp-panel-title{font-weight:700}.bvlp-svg .bvlp-annotation{paint-order:stroke;stroke:#fff;stroke-width:4px;stroke-linejoin:round}.bvlp-svg path,.bvlp-svg line,.bvlp-svg polyline,.bvlp-svg polygon,.bvlp-svg circle,.bvlp-svg ellipse{shape-rendering:geometricPrecision}@media print{.bvlp-svg{color-adjust:exact;print-color-adjust:exact}.bvlp-svg .bvlp-panel-bg{fill:#fff}.bvlp-svg text{fill:#000!important}}</style><defs><pattern height="10" id="bvlp-precalculus-u6-l1-v1-pattern-diagonal" patternUnits="userSpaceOnUse" width="10"><rect fill="#f8fafc" height="10" width="10"/><path d="M-2 10L10-2M3 15L15 3" fill="none" stroke="#64748b" stroke-width="1.25"/></pattern><pattern height="10" id="bvlp-precalculus-u6-l1-v1-pattern-crosshatch" patternUnits="userSpaceOnUse" width="10"><rect fill="#f8fafc" height="10" width="10"/><path d="M-2 10L10-2M3 15L15 3M-2 0L10 12M3-5L15 7" fill="none" stroke="#64748b" stroke-width="1"/></pattern><pattern height="9" id="bvlp-precalculus-u6-l1-v1-pattern-dots" patternUnits="userSpaceOnUse" width="9"><rect fill="#f8fafc" height="9" width="9"/><circle cx="4.5" cy="4.5" fill="#64748b" r="1.35"/></pattern><marker id="bvlp-precalculus-u6-l1-v1-arrow" markerHeight="7" markerUnits="strokeWidth" markerWidth="7" orient="auto-start-reverse" refX="8.5" refY="5" viewBox="0 0 10 10"><path d="M0 0L10 5L0 10Z" fill="#111827"/></marker></defs><defs><clipPath id="bvlp-precalculus-u6-l1-v1-panel-default-clip"><rect height="436" width="830" x="84" y="46"/></clipPath></defs><g aria-labelledby="bvlp-precalculus-u6-l1-v1-panel-default-title bvlp-precalculus-u6-l1-v1-panel-default-desc" id="bvlp-precalculus-u6-l1-v1-panel-default" role="group"><title id="bvlp-precalculus-u6-l1-v1-panel-default-title">Rational functions and their domains · Numerator-denominator role map</title><desc id="bvlp-precalculus-u6-l1-v1-panel-default-desc">Follow the foundation example from its given information to the conclusion. The labels identify the mathematical feature that makes the result valid: The denominator creates three continuity intervals.</desc><rect class="bvlp-panel-bg" fill="#ffffff" height="436" stroke="#cbd5e1" stroke-width="1" width="830" x="84" y="46"/><line stroke="#e2e8f0" stroke-width="1" x1="84" x2="84" y1="46" y2="482"/><line stroke="#e2e8f0" stroke-width="1" x1="211.692" x2="211.692" y1="46" y2="482"/><line stroke="#e2e8f0" stroke-width="1" x1="339.385" x2="339.385" y1="46" y2="482"/><line stroke="#e2e8f0" stroke-width="1" x1="467.077" x2="467.077" y1="46" y2="482"/><line stroke="#e2e8f0" stroke-width="1" x1="594.769" x2="594.769" y1="46" y2="482"/><line stroke="#e2e8f0" stroke-width="1" x1="722.462" x2="722.462" y1="46" y2="482"/><line stroke="#e2e8f0" stroke-width="1" x1="850.154" x2="850.154" y1="46" y2="482"/><line stroke="#e2e8f0" stroke-width="1" x1="84" x2="914" y1="438.4" y2="438.4"/><line stroke="#e2e8f0" stroke-width="1" x1="84" x2="914" y1="351.2" y2="351.2"/><line stroke="#e2e8f0" stroke-width="1" x1="84" x2="914" y1="264" y2="264"/><line stroke="#e2e8f0" stroke-width="1" x1="84" x2="914" y1="176.8" y2="176.8"/><line stroke="#e2e8f0" stroke-width="1" x1="84" x2="914" y1="89.6" y2="89.6"/><line stroke="#334155" stroke-width="1.5" x1="84" x2="914" y1="264" y2="264"/><line stroke="#334155" stroke-width="1" x1="84" x2="84" y1="260" y2="268"/><text fill="#111827" font-size="11" text-anchor="middle" x="84" y="502"><tspan dy="0" x="84">-6</tspan></text><line stroke="#334155" stroke-width="1" x1="211.692" x2="211.692" y1="260" y2="268"/><text fill="#111827" font-size="11" text-anchor="middle" x="211.692" y="502"><tspan dy="0" x="211.692">-4</tspan></text><line stroke="#334155" stroke-width="1" x1="339.385" x2="339.385" y1="260" y2="268"/><text fill="#111827" font-size="11" text-anchor="middle" x="339.385" y="502"><tspan dy="0" x="339.385">-2</tspan></text><line stroke="#334155" stroke-width="1" x1="467.077" x2="467.077" y1="260" y2="268"/><text fill="#111827" font-size="11" text-anchor="middle" x="467.077" y="502"><tspan dy="0" x="467.077">0</tspan></text><line stroke="#334155" stroke-width="1" x1="594.769" x2="594.769" y1="260" y2="268"/><text fill="#111827" font-size="11" text-anchor="middle" x="594.769" y="502"><tspan dy="0" x="594.769">2</tspan></text><line stroke="#334155" stroke-width="1" x1="722.462" x2="722.462" y1="260" y2="268"/><text fill="#111827" font-size="11" text-anchor="middle" x="722.462" y="502"><tspan dy="0" x="722.462">4</tspan></text><line stroke="#334155" stroke-width="1" x1="850.154" x2="850.154" y1="260" y2="268"/><text fill="#111827" font-size="11" text-anchor="middle" x="850.154" y="502"><tspan dy="0" x="850.154">6</tspan></text><text class="bvlp-axis-label" fill="#111827" font-size="13" text-anchor="end" x="914" y="521"><tspan dy="0" x="914">input x</tspan></text><line stroke="#334155" stroke-width="1.5" x1="467.077" x2="467.077" y1="46" y2="482"/><line stroke="#334155" stroke-width="1" x1="463.077" x2="471.077" y1="438.4" y2="438.4"/><text fill="#111827" font-size="11" text-anchor="end" x="76" y="442.4"><tspan dy="0" x="76">-4</tspan></text><line stroke="#334155" stroke-width="1" x1="463.077" x2="471.077" y1="351.2" y2="351.2"/><text fill="#111827" font-size="11" text-anchor="end" x="76" y="355.2"><tspan dy="0" x="76">-2</tspan></text><line stroke="#334155" stroke-width="1" x1="463.077" x2="471.077" y1="264" y2="264"/><text fill="#111827" font-size="11" text-anchor="end" x="76" y="268"><tspan dy="0" x="76">0</tspan></text><line stroke="#334155" stroke-width="1" x1="463.077" x2="471.077" y1="176.8" y2="176.8"/><text fill="#111827" font-size="11" text-anchor="end" x="76" y="180.8"><tspan dy="0" x="76">2</tspan></text><line stroke="#334155" stroke-width="1" x1="463.077" x2="471.077" y1="89.6" y2="89.6"/><text fill="#111827" font-size="11" text-anchor="end" x="76" y="93.6"><tspan dy="0" x="76">4</tspan></text><text class="bvlp-axis-label" fill="#111827" font-size="13" text-anchor="start" x="84" y="39"><tspan dy="0" x="84">output y</tspan></text><g clip-path="url(#bvlp-precalculus-u6-l1-v1-panel-default-clip)"><g aria-label="Excluded input and vertical asymptote x=-2." data-layer-id="asymptote-negative-two" data-layer-kind="segment" data-line-style="dashed" role="group"><line fill="none" stroke="#b45309" stroke-dasharray="10 7" stroke-linecap="round" stroke-linejoin="round" stroke-width="3" vector-effect="non-scaling-stroke" x1="339.385" x2="339.385" y1="482" y2="46"/></g><g aria-label="Excluded input and vertical asymptote x=3." data-layer-id="asymptote-three" data-layer-kind="segment" data-line-style="dashed" role="group"><line fill="none" stroke="#b45309" stroke-dasharray="10 7" stroke-linecap="round" stroke-linejoin="round" stroke-width="3" vector-effect="non-scaling-stroke" x1="658.615" x2="658.615" y1="482" y2="46"/></g><g aria-label="Horizontal asymptote y=0." data-layer-id="horizontal-asymptote" data-layer-kind="segment" data-line-style="dotted" role="group"><line fill="none" stroke="#64748b" stroke-dasharray="2 6" stroke-linecap="round" stroke-linejoin="round" stroke-width="3" vector-effect="non-scaling-stroke" x1="84" x2="914" y1="264" y2="264"/></g><g aria-label="left branch; solid curve." data-layer-id="left" data-layer-kind="sampled-series" data-line-style="solid" role="group"><path d="M84,271.267L87.073,271.335L90.145,271.406L93.218,271.477L96.29,271.551L99.363,271.626L102.436,271.702L105.508,271.781L108.581,271.861L111.653,271.943L114.726,272.027L117.799,272.113L120.871,272.202L123.944,272.292L127.016,272.385L130.089,272.48L133.162,272.578L136.234,272.678L139.307,272.781L142.379,272.887L145.452,272.996L148.525,273.108L151.597,273.224L154.67,273.342L157.742,273.465L160.815,273.591L163.888,273.721L166.96,273.855L170.033,273.993L173.105,274.137L176.178,274.285L179.25,274.438L182.323,274.596L185.396,274.76L188.468,274.931L191.541,275.107L194.613,275.291L197.686,275.482L200.759,275.68L203.831,275.887L206.904,276.102L209.976,276.327L213.049,276.562L216.122,276.808L219.194,277.065L222.267,277.335L225.339,277.618L228.412,277.916L231.485,278.23L234.557,278.561L237.63,278.91L240.702,279.28L243.775,279.672L246.848,280.089L249.92,280.533L252.993,281.006L256.065,281.513L259.138,282.057L262.211,282.642L265.283,283.273L268.356,283.956L271.428,284.699L274.501,285.509L277.574,286.397L280.646,287.375L283.719,288.458L286.791,289.663L289.864,291.014L292.937,292.54L296.009,294.277L299.082,296.273L302.154,298.593L305.227,301.324L308.3,304.588L311.372,308.559L314.445,313.499L317.517,319.816L320.59,328.185L323.663,339.809L326.735,357.058L329.808,385.346" data-segment-index="0" fill="none" stroke="#155e75" stroke-linecap="round" stroke-linejoin="round" stroke-width="3" vector-effect="non-scaling-stroke"/><text class="bvlp-annotation" data-bvlp-label-box="95,246.927,87.37,15.34" fill="#111827" font-size="13" text-anchor="start" x="95" y="259.927"><tspan dy="0" x="95">left branch</tspan></text></g><g aria-label="middle branch; solid curve." data-layer-id="middle" data-layer-kind="sampled-series" data-line-style="solid" role="group"><path d="M348.962,153.127L352.713,185.915L356.463,204.331L360.214,216.141L363.965,224.37L367.716,230.44L371.467,235.11L375.218,238.82L378.969,241.844L382.72,244.36L386.471,246.49L390.222,248.32L393.973,249.914L397.724,251.316L401.475,252.562L405.226,253.68L408.977,254.691L412.728,255.611L416.479,256.455L420.23,257.233L423.981,257.956L427.732,258.631L431.483,259.263L435.234,259.86L438.985,260.425L442.736,260.963L446.487,261.477L450.238,261.971L453.988,262.446L457.739,262.907L461.49,263.354L465.241,263.79" data-segment-index="0" fill="none" stroke="#155e75" stroke-linecap="round" stroke-linejoin="round" stroke-width="3" vector-effect="non-scaling-stroke"/><path d="M465.241,263.79L468.992,264.217" data-segment-index="1" fill="none" stroke="#155e75" stroke-linecap="round" stroke-linejoin="round" stroke-width="3" vector-effect="non-scaling-stroke"/><path d="M468.992,264.217L472.743,264.636L476.494,265.05L480.245,265.459L483.996,265.865L487.747,266.27L491.498,266.674L495.249,267.08L499,267.488L502.751,267.9L506.502,268.317L510.253,268.741L514.004,269.173L517.755,269.615L521.506,270.068L525.257,270.534L529.008,271.015L532.759,271.513L536.51,272.03L540.261,272.569L544.012,273.132L547.763,273.723L551.513,274.346L555.264,275.003L559.015,275.699L562.766,276.441L566.517,277.233L570.268,278.082L574.019,278.998L577.77,279.989L581.521,281.066L585.272,282.244L589.023,283.54L592.774,284.973L596.525,286.569L600.276,288.361L604.027,290.389L607.778,292.705L611.529,295.38L615.28,298.506L619.031,302.212L622.782,306.681L626.533,312.182L630.284,319.124L634.035,328.169L637.786,340.452L641.537,358.109L645.288,385.677L649.038,434.804" data-segment-index="2" fill="none" stroke="#155e75" stroke-linecap="round" stroke-linejoin="round" stroke-width="3" vector-effect="non-scaling-stroke"/><text class="bvlp-annotation" data-bvlp-label-box="359.962,128.787,102.71,15.34" fill="#111827" font-size="13" text-anchor="start" x="359.962" y="141.787"><tspan dy="0" x="359.962">middle branch</tspan></text></g><g aria-label="right branch; solid curve." data-layer-id="right" data-layer-kind="sampled-series" data-line-style="solid" role="group"><path d="M668.192,86.214L671.265,128.607L674.338,154.442L677.41,171.84L680.483,184.356L683.555,193.795L686.628,201.169L689.7,207.091L692.773,211.952L695.846,216.015L698.918,219.461L701.991,222.423L705.063,224.996L708.136,227.253L711.209,229.248L714.281,231.026L717.354,232.619L720.426,234.057L723.499,235.359L726.572,236.546L729.644,237.632L732.717,238.63L735.789,239.549L738.862,240.399L741.935,241.188L745.007,241.922L748.08,242.606L751.152,243.247L754.225,243.847L757.298,244.41L760.37,244.941L763.443,245.441L766.515,245.914L769.588,246.361L772.661,246.785L775.733,247.187L778.806,247.57L781.878,247.934L784.951,248.28L788.024,248.612L791.096,248.928L794.169,249.23L797.241,249.52L800.314,249.797L803.387,250.063L806.459,250.319L809.532,250.564L812.604,250.801L815.677,251.028L818.75,251.247L821.822,251.458L824.895,251.662L827.967,251.859L831.04,252.049L834.113,252.232L837.185,252.41L840.258,252.582L843.33,252.748L846.403,252.91L849.475,253.066L852.548,253.218L855.621,253.365L858.693,253.508L861.766,253.647L864.838,253.782L867.911,253.913L870.984,254.041L874.056,254.165L877.129,254.286L880.201,254.404L883.274,254.518L886.347,254.63L889.419,254.739L892.492,254.845L895.564,254.949L898.637,255.05L901.71,255.149L904.782,255.246L907.855,255.34L910.927,255.432L914,255.522" data-segment-index="0" fill="none" stroke="#155e75" stroke-linecap="round" stroke-linejoin="round" stroke-width="3" vector-effect="non-scaling-stroke"/><text class="bvlp-annotation" data-bvlp-label-box="679.192,61.874,95.04,15.34" fill="#111827" font-size="13" text-anchor="start" x="679.192" y="74.874"><tspan dy="0" x="679.192">right branch</tspan></text></g><g aria-label="Label: Domain excludes x=-2 and x=3; three continuity intervals.." data-layer-id="domain" data-layer-kind="label" data-line-style="solid" role="group"><text class="bvlp-annotation" data-bvlp-label-box="92,57.82,242.54,33.04" fill="#111827" font-size="14" font-weight="650" text-anchor="middle" x="213.27" y="71.82"><tspan dy="0" x="213.27">Domain excludes x=-2 and x=3;</tspan><tspan dy="1.18em" x="213.27">three continuity intervals.</tspan></text></g></g></g></svg>
