<svg aria-labelledby="bvlp-precalculus-u16-l11-v1-title bvlp-precalculus-u16-l11-v1-description" class="bvlp-svg" data-bvlp-scene="precalculus-u16-l11-v1" data-grayscale-safe="true" focusable="false" height="558" preserveAspectRatio="xMidYMid meet" role="img" style="display:block;height:auto;max-width:100%;width:100%" viewBox="0 0 960 558" width="100%" xmlns="http://www.w3.org/2000/svg"><title id="bvlp-precalculus-u16-l11-v1-title">Accumulation, finite sums, and area preview · Rate graph with rectangles</title><desc id="bvlp-precalculus-u16-l11-v1-description">Follow the foundation example from its given information to the conclusion. The labels identify the mathematical feature that makes the result valid: Narrower intervals can improve an estimate when the rate varies, motivating the limiting process behind the definite integral. The calculation and the representation should agree, so a graph, diagram, table, or substitution check should support the same conclusion. Follow the foundation example from its given information to the conclusion. The labels identify the mathematical feature that makes the result valid: Narrower intervals can improve an estimate when the rate varies, motivating the limiting process behind the definite integral. The calculation and the representation should agree, so a graph, diagram, table, or substitution check should support the same conclusion. The figure uses concrete points, curves, arrows, intervals, or matrix structure instead of relying on color alone. Labels, point shapes, line styles, arrows, and position carry the mathematical meaning; color is supplementary. Caption: Follow the foundation example from its given information to the conclusion. The labels identify the mathematical feature that makes the result valid: Narrower intervals can improve an estimate when the rate varies, motivating the limiting process behind the definite integral. The calculation and the representation should agree, so a graph, diagram, table, or substitution check should support the same conclusion. Reading order: curve: curved boundary f(x); solid curve.; title: Label: Rate graph with rectangles.; rectangle-0: rectangle 1 approximates accumulated area; rectangle-1: rectangle 2 approximates accumulated area; rectangle-2: rectangle 3 approximates accumulated area; rectangle-3: rectangle 4 approximates accumulated area; rectangle-4: rectangle 5 approximates accumulated area; rectangle-5: rectangle 6 approximates accumulated area.</desc><style>.bvlp-svg text{font-family:ui-sans-serif,system-ui,-apple-system,"Segoe UI",sans-serif}.bvlp-svg .bvlp-axis-label,.bvlp-svg .bvlp-panel-title{font-weight:700}.bvlp-svg .bvlp-annotation{paint-order:stroke;stroke:#fff;stroke-width:4px;stroke-linejoin:round}.bvlp-svg path,.bvlp-svg line,.bvlp-svg polyline,.bvlp-svg polygon,.bvlp-svg circle,.bvlp-svg ellipse{shape-rendering:geometricPrecision}@media print{.bvlp-svg{color-adjust:exact;print-color-adjust:exact}.bvlp-svg .bvlp-panel-bg{fill:#fff}.bvlp-svg text{fill:#000!important}}</style><defs><pattern height="10" id="bvlp-precalculus-u16-l11-v1-pattern-diagonal" patternUnits="userSpaceOnUse" width="10"><rect fill="#f8fafc" height="10" width="10"/><path d="M-2 10L10-2M3 15L15 3" fill="none" stroke="#64748b" stroke-width="1.25"/></pattern><pattern height="10" id="bvlp-precalculus-u16-l11-v1-pattern-crosshatch" patternUnits="userSpaceOnUse" width="10"><rect fill="#f8fafc" height="10" width="10"/><path d="M-2 10L10-2M3 15L15 3M-2 0L10 12M3-5L15 7" fill="none" stroke="#64748b" stroke-width="1"/></pattern><pattern height="9" id="bvlp-precalculus-u16-l11-v1-pattern-dots" patternUnits="userSpaceOnUse" width="9"><rect fill="#f8fafc" height="9" width="9"/><circle cx="4.5" cy="4.5" fill="#64748b" r="1.35"/></pattern><marker id="bvlp-precalculus-u16-l11-v1-arrow" markerHeight="7" markerUnits="strokeWidth" markerWidth="7" orient="auto-start-reverse" refX="8.5" refY="5" viewBox="0 0 10 10"><path d="M0 0L10 5L0 10Z" fill="#111827"/></marker></defs><defs><clipPath id="bvlp-precalculus-u16-l11-v1-panel-default-clip"><rect height="436" width="830" x="84" y="46"/></clipPath></defs><g aria-labelledby="bvlp-precalculus-u16-l11-v1-panel-default-title bvlp-precalculus-u16-l11-v1-panel-default-desc" id="bvlp-precalculus-u16-l11-v1-panel-default" role="group"><title id="bvlp-precalculus-u16-l11-v1-panel-default-title">Accumulation, finite sums, and area preview · Rate graph with rectangles</title><desc id="bvlp-precalculus-u16-l11-v1-panel-default-desc">Follow the foundation example from its given information to the conclusion. The labels identify the mathematical feature that makes the result valid: Narrower intervals can improve an estimate when the rate varies, motivating the limiting process behind the definite integral. The calculation and the representation should agree, so a graph, diagram, table, or substitution check should support the same conclusion.</desc><rect class="bvlp-panel-bg" fill="#ffffff" height="436" stroke="#cbd5e1" stroke-width="1" width="830" x="84" y="46"/><line stroke="#e2e8f0" stroke-width="1" x1="120.618" x2="120.618" y1="46" y2="482"/><line stroke="#e2e8f0" stroke-width="1" x1="242.676" x2="242.676" y1="46" y2="482"/><line stroke="#e2e8f0" stroke-width="1" x1="364.735" x2="364.735" y1="46" y2="482"/><line stroke="#e2e8f0" stroke-width="1" x1="486.794" x2="486.794" y1="46" y2="482"/><line stroke="#e2e8f0" stroke-width="1" x1="608.853" x2="608.853" y1="46" y2="482"/><line stroke="#e2e8f0" stroke-width="1" x1="730.912" x2="730.912" y1="46" y2="482"/><line stroke="#e2e8f0" stroke-width="1" x1="852.971" x2="852.971" y1="46" y2="482"/><line stroke="#e2e8f0" stroke-width="1" x1="84" x2="914" y1="460.557" y2="460.557"/><line stroke="#e2e8f0" stroke-width="1" x1="84" x2="914" y1="389.082" y2="389.082"/><line stroke="#e2e8f0" stroke-width="1" x1="84" x2="914" y1="317.607" y2="317.607"/><line stroke="#e2e8f0" stroke-width="1" x1="84" x2="914" y1="246.131" y2="246.131"/><line stroke="#e2e8f0" stroke-width="1" x1="84" x2="914" y1="174.656" y2="174.656"/><line stroke="#e2e8f0" stroke-width="1" x1="84" x2="914" y1="103.18" y2="103.18"/><line stroke="#334155" stroke-width="1.5" x1="84" x2="914" y1="460.557" y2="460.557"/><line stroke="#334155" stroke-width="1" x1="120.618" x2="120.618" y1="456.557" y2="464.557"/><text fill="#111827" font-size="11" text-anchor="middle" x="120.618" y="502"><tspan dy="0" x="120.618">0</tspan></text><line stroke="#334155" stroke-width="1" x1="242.676" x2="242.676" y1="456.557" y2="464.557"/><text fill="#111827" font-size="11" text-anchor="middle" x="242.676" y="502"><tspan dy="0" x="242.676">1</tspan></text><line stroke="#334155" stroke-width="1" x1="364.735" x2="364.735" y1="456.557" y2="464.557"/><text fill="#111827" font-size="11" text-anchor="middle" x="364.735" y="502"><tspan dy="0" x="364.735">2</tspan></text><line stroke="#334155" stroke-width="1" x1="486.794" x2="486.794" y1="456.557" y2="464.557"/><text fill="#111827" font-size="11" text-anchor="middle" x="486.794" y="502"><tspan dy="0" x="486.794">3</tspan></text><line stroke="#334155" stroke-width="1" x1="608.853" x2="608.853" y1="456.557" y2="464.557"/><text fill="#111827" font-size="11" text-anchor="middle" x="608.853" y="502"><tspan dy="0" x="608.853">4</tspan></text><line stroke="#334155" stroke-width="1" x1="730.912" x2="730.912" y1="456.557" y2="464.557"/><text fill="#111827" font-size="11" text-anchor="middle" x="730.912" y="502"><tspan dy="0" x="730.912">5</tspan></text><line stroke="#334155" stroke-width="1" x1="852.971" x2="852.971" y1="456.557" y2="464.557"/><text fill="#111827" font-size="11" text-anchor="middle" x="852.971" y="502"><tspan dy="0" x="852.971">6</tspan></text><text class="bvlp-axis-label" fill="#111827" font-size="13" text-anchor="end" x="914" y="521"><tspan dy="0" x="914">input x</tspan></text><line stroke="#334155" stroke-width="1.5" x1="120.618" x2="120.618" y1="46" y2="482"/><line stroke="#334155" stroke-width="1" x1="116.618" x2="124.618" y1="460.557" y2="460.557"/><text fill="#111827" font-size="11" text-anchor="end" x="76" y="464.557"><tspan dy="0" x="76">0</tspan></text><line stroke="#334155" stroke-width="1" x1="116.618" x2="124.618" y1="389.082" y2="389.082"/><text fill="#111827" font-size="11" text-anchor="end" x="76" y="393.082"><tspan dy="0" x="76">1</tspan></text><line stroke="#334155" stroke-width="1" x1="116.618" x2="124.618" y1="317.607" y2="317.607"/><text fill="#111827" font-size="11" text-anchor="end" x="76" y="321.607"><tspan dy="0" x="76">2</tspan></text><line stroke="#334155" stroke-width="1" x1="116.618" x2="124.618" y1="246.131" y2="246.131"/><text fill="#111827" font-size="11" text-anchor="end" x="76" y="250.131"><tspan dy="0" x="76">3</tspan></text><line stroke="#334155" stroke-width="1" x1="116.618" x2="124.618" y1="174.656" y2="174.656"/><text fill="#111827" font-size="11" text-anchor="end" x="76" y="178.656"><tspan dy="0" x="76">4</tspan></text><line stroke="#334155" stroke-width="1" x1="116.618" x2="124.618" y1="103.18" y2="103.18"/><text fill="#111827" font-size="11" text-anchor="end" x="76" y="107.18"><tspan dy="0" x="76">5</tspan></text><text class="bvlp-axis-label" fill="#111827" font-size="13" text-anchor="start" x="84" y="39"><tspan dy="0" x="84">accumulated height</tspan></text><g clip-path="url(#bvlp-precalculus-u16-l11-v1-panel-default-clip)"><g aria-label="rectangle 1 approximates accumulated area" data-layer-id="rectangle-0" data-layer-kind="polygon" data-line-style="solid" role="group"><polygon fill="url(#bvlp-precalculus-u16-l11-v1-pattern-diagonal)" fill-opacity="0.38" points="120.618,460.557 242.676,460.557 242.676,409.095 120.618,409.095" stroke="#b45309" stroke-width="2" vector-effect="non-scaling-stroke"/></g><g aria-label="rectangle 2 approximates accumulated area" data-layer-id="rectangle-1" data-layer-kind="polygon" data-line-style="solid" role="group"><polygon fill="url(#bvlp-precalculus-u16-l11-v1-pattern-dots)" fill-opacity="0.38" points="242.676,460.557 364.735,460.557 364.735,383.364 242.676,383.364" stroke="#7c3aed" stroke-width="2" vector-effect="non-scaling-stroke"/></g><g aria-label="rectangle 3 approximates accumulated area" data-layer-id="rectangle-2" data-layer-kind="polygon" data-line-style="solid" role="group"><polygon fill="url(#bvlp-precalculus-u16-l11-v1-pattern-diagonal)" fill-opacity="0.38" points="364.735,460.557 486.794,460.557 486.794,340.479 364.735,340.479" stroke="#b45309" stroke-width="2" vector-effect="non-scaling-stroke"/></g><g aria-label="rectangle 4 approximates accumulated area" data-layer-id="rectangle-3" data-layer-kind="polygon" data-line-style="solid" role="group"><polygon fill="url(#bvlp-precalculus-u16-l11-v1-pattern-dots)" fill-opacity="0.38" points="486.794,460.557 608.853,460.557 608.853,280.439 486.794,280.439" stroke="#7c3aed" stroke-width="2" vector-effect="non-scaling-stroke"/></g><g aria-label="rectangle 5 approximates accumulated area" data-layer-id="rectangle-4" data-layer-kind="polygon" data-line-style="solid" role="group"><polygon fill="url(#bvlp-precalculus-u16-l11-v1-pattern-diagonal)" fill-opacity="0.38" points="608.853,460.557 730.912,460.557 730.912,203.246 608.853,203.246" stroke="#b45309" stroke-width="2" vector-effect="non-scaling-stroke"/></g><g aria-label="rectangle 6 approximates accumulated area" data-layer-id="rectangle-5" data-layer-kind="polygon" data-line-style="solid" role="group"><polygon fill="url(#bvlp-precalculus-u16-l11-v1-pattern-dots)" fill-opacity="0.38" points="730.912,460.557 852.971,460.557 852.971,108.898 730.912,108.898" stroke="#7c3aed" stroke-width="2" vector-effect="non-scaling-stroke"/></g><g aria-label="curved boundary f(x); solid curve." data-layer-id="curve" data-layer-kind="sampled-series" data-line-style="solid" role="group"><path d="M120.618,417.672L129.772,417.624L138.926,417.479L148.081,417.238L157.235,416.9L166.39,416.466L175.544,415.935L184.699,415.308L193.853,414.584L203.007,413.764L212.162,412.848L221.316,411.834L230.471,410.725L239.625,409.519L248.779,408.216L257.934,406.817L267.088,405.321L276.243,403.729L285.397,402.04L294.551,400.255L303.706,398.374L312.86,396.396L322.015,394.321L331.169,392.15L340.324,389.882L349.478,387.518L358.632,385.058L367.787,382.501L376.941,379.847L386.096,377.097L395.25,374.251L404.404,371.308L413.559,368.268L422.713,365.132L431.868,361.9L441.022,358.571L450.176,355.145L459.331,351.623L468.485,348.005L477.64,344.29L486.794,340.479L495.949,336.571L505.103,332.566L514.257,328.465L523.412,324.268L532.566,319.974L541.721,315.584L550.875,311.097L560.029,306.514L569.184,301.834L578.338,297.057L587.493,292.185L596.647,287.215L605.801,282.149L614.956,276.987L624.11,271.728L633.265,266.373L642.419,260.921L651.574,255.373L660.728,249.728L669.882,243.987L679.037,238.149L688.191,232.215L697.346,226.184L706.5,220.057L715.654,213.833L724.809,207.513L733.963,201.096L743.118,194.583L752.272,187.973L761.426,181.267L770.581,174.465L779.735,167.565L788.89,160.57L798.044,153.478L807.199,146.289L816.353,139.004L825.507,131.622L834.662,124.144L843.816,116.569L852.971,108.898" data-segment-index="0" fill="none" stroke="#155e75" stroke-linecap="round" stroke-linejoin="round" stroke-width="3" vector-effect="non-scaling-stroke"/><text class="bvlp-annotation" data-bvlp-label-box="131.618,393.332,156.4,15.34" fill="#111827" font-size="13" text-anchor="start" x="131.618" y="406.332"><tspan dy="0" x="131.618">curved boundary f(x)</tspan></text></g><g aria-label="Label: Rate graph with rectangles." data-layer-id="title" data-layer-kind="label" data-line-style="solid" role="group"><text class="bvlp-annotation" data-bvlp-label-box="92,69.904,217.76,16.52" fill="#111827" font-size="14" font-weight="650" text-anchor="middle" x="200.88" y="83.904"><tspan dy="0" x="200.88">Rate graph with rectangles</tspan></text></g></g></g></svg>
