<svg aria-labelledby="bvlp-precalculus-u7-l10-v1-title bvlp-precalculus-u7-l10-v1-description" class="bvlp-svg" data-bvlp-scene="precalculus-u7-l10-v1" data-grayscale-safe="true" focusable="false" height="558" preserveAspectRatio="xMidYMid meet" role="img" style="display:block;height:auto;max-width:100%;width:100%" viewBox="0 0 960 558" width="100%" xmlns="http://www.w3.org/2000/svg"><title id="bvlp-precalculus-u7-l10-v1-title">Logarithmic graphs and transformations · Log parent features</title><desc id="bvlp-precalculus-u7-l10-v1-description">Follow the foundation example from its given information to the conclusion. The labels identify the mathematical feature that makes the result valid: The negative inside coefficient places the graph to the left. Follow the foundation example from its given information to the conclusion. The labels identify the mathematical feature that makes the result valid: The negative inside coefficient places the graph to the left. The figure uses concrete points, curves, arrows, intervals, or matrix structure instead of relying on color alone. Labels, point shapes, line styles, arrows, and position carry the mathematical meaning; color is supplementary. Caption: Follow the foundation example from its given information to the conclusion. The labels identify the mathematical feature that makes the result valid: The negative inside coefficient places the graph to the left. Reading order: exponential: y=2^x; solid curve.; logarithm: y=log₂(x); dashed curve.; inverse-line: Reflection line y=x.; exp-point: Filled diamond marks 2³=8.; log-point: Filled square marks log₂(8)=3.; inverse-note: Label: Exponentials and logarithms reverse input and output...</desc><style>.bvlp-svg text{font-family:ui-sans-serif,system-ui,-apple-system,"Segoe UI",sans-serif}.bvlp-svg .bvlp-axis-label,.bvlp-svg .bvlp-panel-title{font-weight:700}.bvlp-svg .bvlp-annotation{paint-order:stroke;stroke:#fff;stroke-width:4px;stroke-linejoin:round}.bvlp-svg path,.bvlp-svg line,.bvlp-svg polyline,.bvlp-svg polygon,.bvlp-svg circle,.bvlp-svg ellipse{shape-rendering:geometricPrecision}@media print{.bvlp-svg{color-adjust:exact;print-color-adjust:exact}.bvlp-svg .bvlp-panel-bg{fill:#fff}.bvlp-svg text{fill:#000!important}}</style><defs><pattern height="10" id="bvlp-precalculus-u7-l10-v1-pattern-diagonal" patternUnits="userSpaceOnUse" width="10"><rect fill="#f8fafc" height="10" width="10"/><path d="M-2 10L10-2M3 15L15 3" fill="none" stroke="#64748b" stroke-width="1.25"/></pattern><pattern height="10" id="bvlp-precalculus-u7-l10-v1-pattern-crosshatch" patternUnits="userSpaceOnUse" width="10"><rect fill="#f8fafc" height="10" width="10"/><path d="M-2 10L10-2M3 15L15 3M-2 0L10 12M3-5L15 7" fill="none" stroke="#64748b" stroke-width="1"/></pattern><pattern height="9" id="bvlp-precalculus-u7-l10-v1-pattern-dots" patternUnits="userSpaceOnUse" width="9"><rect fill="#f8fafc" height="9" width="9"/><circle cx="4.5" cy="4.5" fill="#64748b" r="1.35"/></pattern><marker id="bvlp-precalculus-u7-l10-v1-arrow" markerHeight="7" markerUnits="strokeWidth" markerWidth="7" orient="auto-start-reverse" refX="8.5" refY="5" viewBox="0 0 10 10"><path d="M0 0L10 5L0 10Z" fill="#111827"/></marker></defs><defs><clipPath id="bvlp-precalculus-u7-l10-v1-panel-default-clip"><rect height="436" width="830" x="84" y="46"/></clipPath></defs><g aria-labelledby="bvlp-precalculus-u7-l10-v1-panel-default-title bvlp-precalculus-u7-l10-v1-panel-default-desc" id="bvlp-precalculus-u7-l10-v1-panel-default" role="group"><title id="bvlp-precalculus-u7-l10-v1-panel-default-title">Logarithmic graphs and transformations · Log parent features</title><desc id="bvlp-precalculus-u7-l10-v1-panel-default-desc">Follow the foundation example from its given information to the conclusion. The labels identify the mathematical feature that makes the result valid: The negative inside coefficient places the graph to the left.</desc><rect class="bvlp-panel-bg" fill="#ffffff" height="436" stroke="#cbd5e1" stroke-width="1" width="830" x="84" y="46"/><line stroke="#e2e8f0" stroke-width="1" x1="114.741" x2="114.741" y1="46" y2="482"/><line stroke="#e2e8f0" stroke-width="1" x1="237.704" x2="237.704" y1="46" y2="482"/><line stroke="#e2e8f0" stroke-width="1" x1="360.667" x2="360.667" y1="46" y2="482"/><line stroke="#e2e8f0" stroke-width="1" x1="483.63" x2="483.63" y1="46" y2="482"/><line stroke="#e2e8f0" stroke-width="1" x1="606.593" x2="606.593" y1="46" y2="482"/><line stroke="#e2e8f0" stroke-width="1" x1="729.556" x2="729.556" y1="46" y2="482"/><line stroke="#e2e8f0" stroke-width="1" x1="852.519" x2="852.519" y1="46" y2="482"/><line stroke="#e2e8f0" stroke-width="1" x1="84" x2="914" y1="465.852" y2="465.852"/><line stroke="#e2e8f0" stroke-width="1" x1="84" x2="914" y1="401.259" y2="401.259"/><line stroke="#e2e8f0" stroke-width="1" x1="84" x2="914" y1="336.667" y2="336.667"/><line stroke="#e2e8f0" stroke-width="1" x1="84" x2="914" y1="272.074" y2="272.074"/><line stroke="#e2e8f0" stroke-width="1" x1="84" x2="914" y1="207.481" y2="207.481"/><line stroke="#e2e8f0" stroke-width="1" x1="84" x2="914" y1="142.889" y2="142.889"/><line stroke="#e2e8f0" stroke-width="1" x1="84" x2="914" y1="78.296" y2="78.296"/><line stroke="#334155" stroke-width="1.5" x1="84" x2="914" y1="336.667" y2="336.667"/><line stroke="#334155" stroke-width="1" x1="114.741" x2="114.741" y1="332.667" y2="340.667"/><text fill="#111827" font-size="11" text-anchor="middle" x="114.741" y="502"><tspan dy="0" x="114.741">-4</tspan></text><line stroke="#334155" stroke-width="1" x1="237.704" x2="237.704" y1="332.667" y2="340.667"/><text fill="#111827" font-size="11" text-anchor="middle" x="237.704" y="502"><tspan dy="0" x="237.704">-2</tspan></text><line stroke="#334155" stroke-width="1" x1="360.667" x2="360.667" y1="332.667" y2="340.667"/><text fill="#111827" font-size="11" text-anchor="middle" x="360.667" y="502"><tspan dy="0" x="360.667">0</tspan></text><line stroke="#334155" stroke-width="1" x1="483.63" x2="483.63" y1="332.667" y2="340.667"/><text fill="#111827" font-size="11" text-anchor="middle" x="483.63" y="502"><tspan dy="0" x="483.63">2</tspan></text><line stroke="#334155" stroke-width="1" x1="606.593" x2="606.593" y1="332.667" y2="340.667"/><text fill="#111827" font-size="11" text-anchor="middle" x="606.593" y="502"><tspan dy="0" x="606.593">4</tspan></text><line stroke="#334155" stroke-width="1" x1="729.556" x2="729.556" y1="332.667" y2="340.667"/><text fill="#111827" font-size="11" text-anchor="middle" x="729.556" y="502"><tspan dy="0" x="729.556">6</tspan></text><line stroke="#334155" stroke-width="1" x1="852.519" x2="852.519" y1="332.667" y2="340.667"/><text fill="#111827" font-size="11" text-anchor="middle" x="852.519" y="502"><tspan dy="0" x="852.519">8</tspan></text><text class="bvlp-axis-label" fill="#111827" font-size="13" text-anchor="end" x="914" y="521"><tspan dy="0" x="914">x</tspan></text><line stroke="#334155" stroke-width="1.5" x1="360.667" x2="360.667" y1="46" y2="482"/><line stroke="#334155" stroke-width="1" x1="356.667" x2="364.667" y1="465.852" y2="465.852"/><text fill="#111827" font-size="11" text-anchor="end" x="76" y="469.852"><tspan dy="0" x="76">-4</tspan></text><line stroke="#334155" stroke-width="1" x1="356.667" x2="364.667" y1="401.259" y2="401.259"/><text fill="#111827" font-size="11" text-anchor="end" x="76" y="405.259"><tspan dy="0" x="76">-2</tspan></text><line stroke="#334155" stroke-width="1" x1="356.667" x2="364.667" y1="336.667" y2="336.667"/><text fill="#111827" font-size="11" text-anchor="end" x="76" y="340.667"><tspan dy="0" x="76">0</tspan></text><line stroke="#334155" stroke-width="1" x1="356.667" x2="364.667" y1="272.074" y2="272.074"/><text fill="#111827" font-size="11" text-anchor="end" x="76" y="276.074"><tspan dy="0" x="76">2</tspan></text><line stroke="#334155" stroke-width="1" x1="356.667" x2="364.667" y1="207.481" y2="207.481"/><text fill="#111827" font-size="11" text-anchor="end" x="76" y="211.481"><tspan dy="0" x="76">4</tspan></text><line stroke="#334155" stroke-width="1" x1="356.667" x2="364.667" y1="142.889" y2="142.889"/><text fill="#111827" font-size="11" text-anchor="end" x="76" y="146.889"><tspan dy="0" x="76">6</tspan></text><line stroke="#334155" stroke-width="1" x1="356.667" x2="364.667" y1="78.296" y2="78.296"/><text fill="#111827" font-size="11" text-anchor="end" x="76" y="82.296"><tspan dy="0" x="76">8</tspan></text><text class="bvlp-axis-label" fill="#111827" font-size="13" text-anchor="start" x="84" y="39"><tspan dy="0" x="84">y</tspan></text><g clip-path="url(#bvlp-precalculus-u7-l10-v1-panel-default-clip)"><g aria-label="Reflection line y=x." data-layer-id="inverse-line" data-layer-kind="segment" data-line-style="dotted" role="group"><line fill="none" stroke="#64748b" stroke-dasharray="2 6" stroke-linecap="round" stroke-linejoin="round" stroke-width="3" vector-effect="non-scaling-stroke" x1="114.741" x2="729.556" y1="465.852" y2="142.889"/></g><g aria-label="y=2^x; solid curve." data-layer-id="exponential" data-layer-kind="sampled-series" data-line-style="solid" role="group"><path d="M114.741,334.648L119.851,334.528L124.962,334.402L130.073,334.267L135.183,334.125L140.294,333.974L145.405,333.815L150.515,333.645L155.626,333.466L160.737,333.276L165.847,333.075L170.958,332.862L176.069,332.637L181.179,332.398L186.29,332.144L191.4,331.876L196.511,331.592L201.622,331.291L206.732,330.972L211.843,330.635L216.954,330.277L222.064,329.898L227.175,329.496L232.286,329.071L237.396,328.621L242.507,328.143L247.618,327.638L252.728,327.102L257.839,326.535L262.95,325.934L268.06,325.298L273.171,324.623L278.281,323.909L283.392,323.152L288.503,322.351L293.613,321.502L298.724,320.602L303.835,319.649L308.945,318.64L314.056,317.571L319.167,316.438L324.277,315.239L329.388,313.968L334.499,312.622L339.609,311.195L344.72,309.685L349.831,308.084L354.941,306.389L360.052,304.593" data-segment-index="0" fill="none" stroke="#155e75" stroke-linecap="round" stroke-linejoin="round" stroke-width="3" vector-effect="non-scaling-stroke"/><path d="M360.052,304.593L365.163,302.691L370.273,300.676L375.384,298.542L380.494,296.28L385.605,293.885L390.716,291.348L395.826,288.66L400.937,285.812L406.048,282.796L411.158,279.601L416.269,276.217L421.38,272.631L426.49,268.833L431.601,264.81L436.712,260.548L441.822,256.034L446.933,251.251L452.044,246.185L457.154,240.819L462.265,235.134L467.375,229.112L472.486,222.733L477.597,215.976L482.707,208.818L487.818,201.235L492.929,193.202L498.039,184.694L503.15,175.68L508.261,166.132L513.371,156.017L518.482,145.303L523.593,133.953" data-segment-index="1" fill="none" stroke="#155e75" stroke-linecap="round" stroke-linejoin="round" stroke-width="3" vector-effect="non-scaling-stroke"/><text class="bvlp-annotation" data-bvlp-label-box="125.741,310.308,41.35,15.34" fill="#111827" font-size="13" text-anchor="start" x="125.741" y="323.308"><tspan dy="0" x="125.741">y=2^x</tspan></text></g><g aria-label="y=log₂(x); dashed curve." data-layer-id="logarithm" data-layer-kind="sampled-series" data-line-style="dashed" role="group"><path d="M365.585,454.35L370.135,423.834L374.684,405.551L379.234,392.455L383.784,382.243L388.333,373.872L392.883,366.778L397.433,360.624L401.982,355.188L406.532,350.32L411.081,345.913L415.631,341.887L420.181,338.182" data-segment-index="0" fill="none" stroke="#7c3aed" stroke-dasharray="10 7" stroke-linecap="round" stroke-linejoin="round" stroke-width="3" vector-effect="non-scaling-stroke"/><path d="M420.181,338.182L424.73,334.75L429.28,331.553L433.83,328.562L438.379,325.751L442.929,323.1L447.479,320.592L452.028,318.211L456.578,315.947L461.127,313.788L465.677,311.724L470.227,309.748L474.776,307.852L479.326,306.03L483.876,304.277L488.425,302.588L492.975,300.957L497.524,299.382L502.074,297.858L506.624,296.383L511.173,294.953L515.723,293.565L520.273,292.218L524.822,290.908L529.372,289.634L533.921,288.394L538.471,287.187L543.021,286.009L547.57,284.861L552.12,283.74L556.67,282.646L561.219,281.577L565.769,280.532L570.319,279.51L574.868,278.509L579.418,277.53L583.967,276.571L588.517,275.631L593.067,274.71L597.616,273.807L602.166,272.92L606.716,272.051L611.265,271.197L615.815,270.359L620.364,269.535L624.914,268.726L629.464,267.931L634.013,267.149L638.563,266.379L643.113,265.623L647.662,264.878L652.212,264.145L656.761,263.424L661.311,262.714L665.861,262.014L670.41,261.324L674.96,260.645L679.51,259.975L684.059,259.315L688.609,258.664L693.159,258.022L697.708,257.389L702.258,256.764L706.807,256.148L711.357,255.539L715.907,254.939L720.456,254.346L725.006,253.76L729.556,253.182" data-segment-index="1" fill="none" stroke="#7c3aed" stroke-dasharray="10 7" stroke-linecap="round" stroke-linejoin="round" stroke-width="3" vector-effect="non-scaling-stroke"/><text class="bvlp-annotation" data-bvlp-label-box="376.585,430.01,72.03,15.34" fill="#111827" font-size="13" text-anchor="start" x="376.585" y="443.01"><tspan dy="0" x="376.585">y=log₂(x)</tspan></text></g><g aria-label="Filled diamond marks 2³=8." data-layer-id="exp-point" data-layer-kind="closed-point" data-line-style="solid" role="group"><polygon fill="#fcd34d" points="545.111,71.296 552.111,78.296 545.111,85.296 538.111,78.296" stroke="#b45309" stroke-width="2.25" vector-effect="non-scaling-stroke"/><text class="bvlp-annotation" data-bvlp-label-box="556.111,54,33.68,15.34" fill="#111827" font-size="13" text-anchor="start" x="556.111" y="67"><tspan dy="0" x="556.111">2³=8</tspan></text></g><g aria-label="Filled square marks log₂(8)=3." data-layer-id="log-point" data-layer-kind="closed-point" data-line-style="solid" role="group"><rect fill="#fcd34d" height="12" stroke="#b45309" stroke-width="2.25" vector-effect="non-scaling-stroke" width="12" x="846.519" y="233.778"/><text class="bvlp-annotation" data-bvlp-label-box="833.97,215.438,72.03,15.34" fill="#111827" font-size="13" text-anchor="start" x="833.97" y="228.438"><tspan dy="0" x="833.97">log₂(8)=3</tspan></text></g><g aria-label="Label: Exponentials and logarithms reverse input and output.." data-layer-id="inverse-note" data-layer-kind="label" data-line-style="solid" role="group"><text class="bvlp-annotation" data-bvlp-label-box="92,132.828,226.02,33.04" fill="#111827" font-size="14" font-weight="650" text-anchor="middle" x="205.01" y="146.828"><tspan dy="0" x="205.01">Exponentials and logarithms</tspan><tspan dy="1.18em" x="205.01">reverse input and output.</tspan></text></g></g></g></svg>
