<svg aria-labelledby="bvlp-unit-2a-2a-v08-title bvlp-unit-2a-2a-v08-description" class="bvlp-svg" data-bvlp-scene="unit-2a-2a-v08" data-grayscale-safe="true" focusable="false" height="558" preserveAspectRatio="xMidYMid meet" role="img" style="display:block;height:auto;max-width:100%;width:100%" viewBox="0 0 960 558" width="100%" xmlns="http://www.w3.org/2000/svg"><title id="bvlp-unit-2a-2a-v08-title">The power rule changes both exponent and slope pattern</title><desc id="bvlp-unit-2a-2a-v08-description">For x n , differentiation multiplies by the old exponent and lowers the exponent by one. The paired graphs show how the derivative records the original curve&apos;s changing steepness. For x 2 , slopes are negative on the left, zero at the origin, and positive on the right, so the derivative is the line 2x . For x 3 , the graph increases everywhere and flattens at the origin, so the derivative 3x 2 is nonnegative and touches zero there. The rule matches the geometry rather than merely manipulating symbols. For x n , differentiation multiplies by the old exponent and lowers the exponent by one. The paired graphs show how the derivative records the original curve&apos;s changing steepness. For x 2 , slopes are negative on the left, zero at the origin, and positive on the right, so the derivative is the line 2x . For x 3 , the graph increases everywhere and flattens at the origin, so the derivative 3x 2 is nonnegative and touches zero there. The rule matches the geometry rather than merely manipulating symbols. The visual uses labeled positions, solid and dashed line styles, and written descriptions so the power rule changes both exponent and slope pattern does not depend on color. Caption: For x n, differentiation multiplies by the old exponent and lowers the exponent by one. The paired graphs show how the derivative records the original curve&apos;s changing steepness. Reading order: relationship-1: solid curve 1 is distinguished by line style and label.; relationship-2: dashed curve 2 is distinguished by line style and label.; relationship-3: dotted curve 3 is distinguished by line style and label.; relationship-4: solid curve 4 is distinguished by line style and label..</desc><style>.bvlp-svg text{font-family:ui-sans-serif,system-ui,-apple-system,"Segoe UI",sans-serif}.bvlp-svg .bvlp-axis-label,.bvlp-svg .bvlp-panel-title{font-weight:700}.bvlp-svg .bvlp-annotation{paint-order:stroke;stroke:#fff;stroke-width:4px;stroke-linejoin:round}.bvlp-svg path,.bvlp-svg line,.bvlp-svg polyline,.bvlp-svg polygon,.bvlp-svg circle,.bvlp-svg ellipse{shape-rendering:geometricPrecision}@media print{.bvlp-svg{color-adjust:exact;print-color-adjust:exact}.bvlp-svg .bvlp-panel-bg{fill:#fff}.bvlp-svg text{fill:#000!important}}</style><defs><pattern height="10" id="bvlp-unit-2a-2a-v08-pattern-diagonal" patternUnits="userSpaceOnUse" width="10"><rect fill="#f8fafc" height="10" width="10"/><path d="M-2 10L10-2M3 15L15 3" fill="none" stroke="#64748b" stroke-width="1.25"/></pattern><pattern height="10" id="bvlp-unit-2a-2a-v08-pattern-crosshatch" patternUnits="userSpaceOnUse" width="10"><rect fill="#f8fafc" height="10" width="10"/><path d="M-2 10L10-2M3 15L15 3M-2 0L10 12M3-5L15 7" fill="none" stroke="#64748b" stroke-width="1"/></pattern><pattern height="9" id="bvlp-unit-2a-2a-v08-pattern-dots" patternUnits="userSpaceOnUse" width="9"><rect fill="#f8fafc" height="9" width="9"/><circle cx="4.5" cy="4.5" fill="#64748b" r="1.35"/></pattern><marker id="bvlp-unit-2a-2a-v08-arrow" markerHeight="7" markerUnits="strokeWidth" markerWidth="7" orient="auto-start-reverse" refX="8.5" refY="5" viewBox="0 0 10 10"><path d="M0 0L10 5L0 10Z" fill="#111827"/></marker></defs><defs><clipPath id="bvlp-unit-2a-2a-v08-panel-default-clip"><rect height="436" width="830" x="84" y="46"/></clipPath></defs><g aria-labelledby="bvlp-unit-2a-2a-v08-panel-default-title bvlp-unit-2a-2a-v08-panel-default-desc" id="bvlp-unit-2a-2a-v08-panel-default" role="group"><title id="bvlp-unit-2a-2a-v08-panel-default-title">The power rule changes both exponent and slope pattern</title><desc id="bvlp-unit-2a-2a-v08-panel-default-desc">For x n , differentiation multiplies by the old exponent and lowers the exponent by one. The paired graphs show how the derivative records the original curve&apos;s changing steepness. For x 2 , slopes are negative on the left, zero at the origin, and positive on the right, so the derivative is the line 2x . For x 3 , the graph increases everywhere and flattens at the origin, so the derivative 3x 2 is nonnegative and touches zero there. The rule matches the geometry rather than merely manipulating symbols.</desc><rect class="bvlp-panel-bg" fill="#ffffff" height="436" stroke="#cbd5e1" stroke-width="1" width="830" x="84" y="46"/><line stroke="#e2e8f0" stroke-width="1" x1="121.727" x2="121.727" y1="46" y2="482"/><line stroke="#e2e8f0" stroke-width="1" x1="216.045" x2="216.045" y1="46" y2="482"/><line stroke="#e2e8f0" stroke-width="1" x1="310.364" x2="310.364" y1="46" y2="482"/><line stroke="#e2e8f0" stroke-width="1" x1="404.682" x2="404.682" y1="46" y2="482"/><line stroke="#e2e8f0" stroke-width="1" x1="499" x2="499" y1="46" y2="482"/><line stroke="#e2e8f0" stroke-width="1" x1="593.318" x2="593.318" y1="46" y2="482"/><line stroke="#e2e8f0" stroke-width="1" x1="687.636" x2="687.636" y1="46" y2="482"/><line stroke="#e2e8f0" stroke-width="1" x1="781.955" x2="781.955" y1="46" y2="482"/><line stroke="#e2e8f0" stroke-width="1" x1="876.273" x2="876.273" y1="46" y2="482"/><line stroke="#e2e8f0" stroke-width="1" x1="84" x2="914" y1="471.619" y2="471.619"/><line stroke="#e2e8f0" stroke-width="1" x1="84" x2="914" y1="430.095" y2="430.095"/><line stroke="#e2e8f0" stroke-width="1" x1="84" x2="914" y1="388.571" y2="388.571"/><line stroke="#e2e8f0" stroke-width="1" x1="84" x2="914" y1="347.048" y2="347.048"/><line stroke="#e2e8f0" stroke-width="1" x1="84" x2="914" y1="305.524" y2="305.524"/><line stroke="#e2e8f0" stroke-width="1" x1="84" x2="914" y1="264" y2="264"/><line stroke="#e2e8f0" stroke-width="1" x1="84" x2="914" y1="222.476" y2="222.476"/><line stroke="#e2e8f0" stroke-width="1" x1="84" x2="914" y1="180.952" y2="180.952"/><line stroke="#e2e8f0" stroke-width="1" x1="84" x2="914" y1="139.429" y2="139.429"/><line stroke="#e2e8f0" stroke-width="1" x1="84" x2="914" y1="97.905" y2="97.905"/><line stroke="#e2e8f0" stroke-width="1" x1="84" x2="914" y1="56.381" y2="56.381"/><line stroke="#334155" stroke-width="1.5" x1="84" x2="914" y1="305.524" y2="305.524"/><line stroke="#334155" stroke-width="1" x1="121.727" x2="121.727" y1="301.524" y2="309.524"/><text fill="#111827" font-size="11" text-anchor="middle" x="121.727" y="502"><tspan dy="0" x="121.727">-2</tspan></text><line stroke="#334155" stroke-width="1" x1="216.045" x2="216.045" y1="301.524" y2="309.524"/><text fill="#111827" font-size="11" text-anchor="middle" x="216.045" y="502"><tspan dy="0" x="216.045">-1.5</tspan></text><line stroke="#334155" stroke-width="1" x1="310.364" x2="310.364" y1="301.524" y2="309.524"/><text fill="#111827" font-size="11" text-anchor="middle" x="310.364" y="502"><tspan dy="0" x="310.364">-1</tspan></text><line stroke="#334155" stroke-width="1" x1="404.682" x2="404.682" y1="301.524" y2="309.524"/><text fill="#111827" font-size="11" text-anchor="middle" x="404.682" y="502"><tspan dy="0" x="404.682">-0.5</tspan></text><line stroke="#334155" stroke-width="1" x1="499" x2="499" y1="301.524" y2="309.524"/><text fill="#111827" font-size="11" text-anchor="middle" x="499" y="502"><tspan dy="0" x="499">0</tspan></text><line stroke="#334155" stroke-width="1" x1="593.318" x2="593.318" y1="301.524" y2="309.524"/><text fill="#111827" font-size="11" text-anchor="middle" x="593.318" y="502"><tspan dy="0" x="593.318">0.5</tspan></text><line stroke="#334155" stroke-width="1" x1="687.636" x2="687.636" y1="301.524" y2="309.524"/><text fill="#111827" font-size="11" text-anchor="middle" x="687.636" y="502"><tspan dy="0" x="687.636">1</tspan></text><line stroke="#334155" stroke-width="1" x1="781.955" x2="781.955" y1="301.524" y2="309.524"/><text fill="#111827" font-size="11" text-anchor="middle" x="781.955" y="502"><tspan dy="0" x="781.955">1.5</tspan></text><line stroke="#334155" stroke-width="1" x1="876.273" x2="876.273" y1="301.524" y2="309.524"/><text fill="#111827" font-size="11" text-anchor="middle" x="876.273" y="502"><tspan dy="0" x="876.273">2</tspan></text><text class="bvlp-axis-label" fill="#111827" font-size="13" text-anchor="end" x="914" y="521"><tspan dy="0" x="914">input x</tspan></text><line stroke="#334155" stroke-width="1.5" x1="499" x2="499" y1="46" y2="482"/><line stroke="#334155" stroke-width="1" x1="495" x2="503" y1="471.619" y2="471.619"/><text fill="#111827" font-size="11" text-anchor="end" x="76" y="475.619"><tspan dy="0" x="76">-8</tspan></text><line stroke="#334155" stroke-width="1" x1="495" x2="503" y1="430.095" y2="430.095"/><text fill="#111827" font-size="11" text-anchor="end" x="76" y="434.095"><tspan dy="0" x="76">-6</tspan></text><line stroke="#334155" stroke-width="1" x1="495" x2="503" y1="388.571" y2="388.571"/><text fill="#111827" font-size="11" text-anchor="end" x="76" y="392.571"><tspan dy="0" x="76">-4</tspan></text><line stroke="#334155" stroke-width="1" x1="495" x2="503" y1="347.048" y2="347.048"/><text fill="#111827" font-size="11" text-anchor="end" x="76" y="351.048"><tspan dy="0" x="76">-2</tspan></text><line stroke="#334155" stroke-width="1" x1="495" x2="503" y1="305.524" y2="305.524"/><text fill="#111827" font-size="11" text-anchor="end" x="76" y="309.524"><tspan dy="0" x="76">0</tspan></text><line stroke="#334155" stroke-width="1" x1="495" x2="503" y1="264" y2="264"/><text fill="#111827" font-size="11" text-anchor="end" x="76" y="268"><tspan dy="0" x="76">2</tspan></text><line stroke="#334155" stroke-width="1" x1="495" x2="503" y1="222.476" y2="222.476"/><text fill="#111827" font-size="11" text-anchor="end" x="76" y="226.476"><tspan dy="0" x="76">4</tspan></text><line stroke="#334155" stroke-width="1" x1="495" x2="503" y1="180.952" y2="180.952"/><text fill="#111827" font-size="11" text-anchor="end" x="76" y="184.952"><tspan dy="0" x="76">6</tspan></text><line stroke="#334155" stroke-width="1" x1="495" x2="503" y1="139.429" y2="139.429"/><text fill="#111827" font-size="11" text-anchor="end" x="76" y="143.429"><tspan dy="0" x="76">8</tspan></text><line stroke="#334155" stroke-width="1" x1="495" x2="503" y1="97.905" y2="97.905"/><text fill="#111827" font-size="11" text-anchor="end" x="76" y="101.905"><tspan dy="0" x="76">10</tspan></text><line stroke="#334155" stroke-width="1" x1="495" x2="503" y1="56.381" y2="56.381"/><text fill="#111827" font-size="11" text-anchor="end" x="76" y="60.381"><tspan dy="0" x="76">12</tspan></text><text class="bvlp-axis-label" fill="#111827" font-size="13" text-anchor="end" x="77" y="39"><tspan dy="0" x="77">function value or slope</tspan></text><g clip-path="url(#bvlp-unit-2a-2a-v08-panel-default-clip)"><g aria-label="solid curve 1 is distinguished by line style and label." data-layer-id="relationship-1" data-layer-kind="sampled-series" data-line-style="solid" role="group"><path d="M121.727,222.476L134.303,227.92L146.879,233.18L159.455,238.255L172.03,243.146L184.606,247.852L197.182,252.373L209.758,256.71L222.333,260.863L234.909,264.83L247.485,268.614L260.061,272.212L272.636,275.627L285.212,278.856L297.788,281.901L310.364,284.762L322.939,287.438L335.515,289.929L348.091,292.236L360.667,294.359L373.242,296.296L385.818,298.05L398.394,299.618L410.97,301.002L423.545,302.202L436.121,303.217L448.697,304.047L461.273,304.693L473.849,305.155L486.424,305.432L499,305.524L511.576,305.432L524.151,305.155L536.727,304.693L549.303,304.047L561.879,303.217L574.455,302.202L587.03,301.002L599.606,299.618L612.182,298.05L624.758,296.296L637.333,294.359L649.909,292.236L662.485,289.929L675.061,287.438L687.636,284.762L700.212,281.901L712.788,278.856L725.364,275.627L737.939,272.212L750.515,268.614L763.091,264.83L775.667,260.863L788.242,256.71L800.818,252.373L813.394,247.852L825.97,243.146L838.545,238.255L851.121,233.18L863.697,227.92L876.273,222.476" data-segment-index="0" fill="none" stroke="#155e75" stroke-linecap="round" stroke-linejoin="round" stroke-width="3" vector-effect="non-scaling-stroke"/><text class="bvlp-annotation" data-bvlp-label-box="132.727,198.136,24,15.34" fill="#111827" font-size="13" text-anchor="start" x="132.727" y="211.136"><tspan dy="0" x="132.727">x²</tspan></text></g><g aria-label="dashed curve 2 is distinguished by line style and label." data-layer-id="relationship-2" data-layer-kind="sampled-series" data-line-style="dashed" role="group"><path d="M121.727,388.571L134.303,385.803L146.879,383.035L159.455,380.267L172.03,377.498L184.606,374.73L197.182,371.962L209.758,369.194L222.333,366.425L234.909,363.657L247.485,360.889L260.061,358.121L272.636,355.352L285.212,352.584L297.788,349.816L310.364,347.048L322.939,344.279L335.515,341.511L348.091,338.743L360.667,335.975L373.242,333.206L385.818,330.438L398.394,327.67L410.97,324.902L423.545,322.133L436.121,319.365L448.697,316.597L461.273,313.829L473.849,311.06L486.424,308.292L499,305.524L511.576,302.756L524.151,299.987L536.727,297.219L549.303,294.451L561.879,291.683L574.455,288.914L587.03,286.146L599.606,283.378L612.182,280.61L624.758,277.841L637.333,275.073L649.909,272.305L662.485,269.537L675.061,266.768L687.636,264L700.212,261.232L712.788,258.463L725.364,255.695L737.939,252.927L750.515,250.159L763.091,247.39L775.667,244.622L788.242,241.854L800.818,239.086L813.394,236.317L825.97,233.549L838.545,230.781L851.121,228.013L863.697,225.244L876.273,222.476" data-segment-index="0" fill="none" stroke="#7c3aed" stroke-dasharray="10 7" stroke-linecap="round" stroke-linejoin="round" stroke-width="3" vector-effect="non-scaling-stroke"/><text class="bvlp-annotation" data-bvlp-label-box="132.727,364.231,102.71,15.34" fill="#111827" font-size="13" text-anchor="start" x="132.727" y="377.231"><tspan dy="0" x="132.727">derivative 2x</tspan></text></g><g aria-label="dotted curve 3 is distinguished by line style and label." data-layer-id="relationship-3" data-layer-kind="sampled-series" data-line-style="dotted" role="group"><path d="M121.727,471.619L134.303,455.557L146.879,440.565L159.455,426.607L172.03,413.646L184.606,401.644L197.182,390.565L209.758,380.371L222.333,371.027L234.909,362.494L247.485,354.737L260.061,347.718L272.636,341.4L285.212,335.747L297.788,330.721L310.364,326.286L322.939,322.404L335.515,319.039L348.091,316.154L360.667,313.712L373.242,311.675L385.818,310.008L398.394,308.673L410.97,307.634L423.545,306.853L436.121,306.293L448.697,305.918L461.273,305.69L473.849,305.573" data-segment-index="0" fill="none" stroke="#b45309" stroke-dasharray="2 6" stroke-linecap="round" stroke-linejoin="round" stroke-width="3" vector-effect="non-scaling-stroke"/><path d="M473.849,305.573L486.424,305.53" data-segment-index="1" fill="none" stroke="#b45309" stroke-dasharray="2 6" stroke-linecap="round" stroke-linejoin="round" stroke-width="3" vector-effect="non-scaling-stroke"/><path d="M486.424,305.53L499,305.524L511.576,305.518L524.151,305.475L536.727,305.358L549.303,305.13L561.879,304.755L574.455,304.195L587.03,303.414L599.606,302.374L612.182,301.039L624.758,299.372L637.333,297.336L649.909,294.894L662.485,292.009L675.061,288.644L687.636,284.762L700.212,280.327L712.788,275.301L725.364,269.647L737.939,263.329L750.515,256.31L763.091,248.553L775.667,240.021L788.242,230.676L800.818,220.483L813.394,209.404L825.97,197.402L838.545,184.44L851.121,170.482L863.697,155.491L876.273,139.429" data-segment-index="2" fill="none" stroke="#b45309" stroke-dasharray="2 6" stroke-linecap="round" stroke-linejoin="round" stroke-width="3" vector-effect="non-scaling-stroke"/><text class="bvlp-annotation" data-bvlp-label-box="132.727,447.279,24,15.34" fill="#111827" font-size="13" text-anchor="start" x="132.727" y="460.279"><tspan dy="0" x="132.727">x³</tspan></text></g><g aria-label="solid curve 4 is distinguished by line style and label." data-layer-id="relationship-4" data-layer-kind="sampled-series" data-line-style="solid" role="group"><path d="M121.727,56.381L134.303,72.714L146.879,88.493L159.455,103.718L172.03,118.39L184.606,132.508L197.182,146.072L209.758,159.083L222.333,171.54L234.909,183.444L247.485,194.794L260.061,205.59L272.636,215.832L285.212,225.521L297.788,234.657L310.364,243.238L322.939,251.266L335.515,258.74L348.091,265.661L360.667,272.028L373.242,277.841L385.818,283.101L398.394,287.807L410.97,291.959L423.545,295.558L436.121,298.603L448.697,301.095L461.273,303.032L473.849,304.417" data-segment-index="0" fill="none" stroke="#155e75" stroke-linecap="round" stroke-linejoin="round" stroke-width="3" vector-effect="non-scaling-stroke"/><path d="M473.849,304.417L486.424,305.247" data-segment-index="1" fill="none" stroke="#155e75" stroke-linecap="round" stroke-linejoin="round" stroke-width="3" vector-effect="non-scaling-stroke"/><path d="M486.424,305.247L499,305.524L511.576,305.247L524.151,304.417L536.727,303.032L549.303,301.095L561.879,298.603L574.455,295.558L587.03,291.959L599.606,287.807L612.182,283.101L624.758,277.841L637.333,272.028L649.909,265.661L662.485,258.74L675.061,251.266L687.636,243.238L700.212,234.657L712.788,225.521L725.364,215.832L737.939,205.59L750.515,194.794L763.091,183.444L775.667,171.54L788.242,159.083L800.818,146.072L813.394,132.508L825.97,118.39L838.545,103.718L851.121,88.493L863.697,72.714L876.273,56.381" data-segment-index="2" fill="none" stroke="#155e75" stroke-linecap="round" stroke-linejoin="round" stroke-width="3" vector-effect="non-scaling-stroke"/><text class="bvlp-annotation" data-bvlp-label-box="132.727,54,110.38,15.34" fill="#111827" font-size="13" text-anchor="start" x="132.727" y="67"><tspan dy="0" x="132.727">derivative 3x²</tspan></text></g></g></g></svg>
