<svg aria-labelledby="bvlp-unit-4a-u4a-integral-test-rectangles-title bvlp-unit-4a-u4a-integral-test-rectangles-description" class="bvlp-svg" data-bvlp-scene="unit-4a-u4a-integral-test-rectangles" data-grayscale-safe="true" focusable="false" height="558" preserveAspectRatio="xMidYMid meet" role="img" style="display:block;height:auto;max-width:100%;width:100%" viewBox="0 0 960 558" width="100%" xmlns="http://www.w3.org/2000/svg"><title id="bvlp-unit-4a-u4a-integral-test-rectangles-title">Decreasing rectangles trap the integral tail</title><desc id="bvlp-unit-4a-u4a-integral-test-rectangles-description">A positive decreasing curve is shown with unit-width rectangles. Right-endpoint rectangles lie below the curve and left-endpoint rectangles lie above it. Decreasing curve with left and right rectangles bracketing the tail. Preserve the misconception control described in the lesson and storyboard. A positive decreasing curve is shown with unit-width rectangles. Right-endpoint rectangles lie below the curve and left-endpoint rectangles lie above it. Decreasing curve with left and right rectangles bracketing the tail. Preserve the misconception control described in the lesson and storyboard. Written labels, distinct line styles, markers, and fill patterns communicate every relationship in decreasing rectangles trap the integral tail; color is never the only cue. Caption: Decreasing rectangles trap the integral tail. Decreasing curve with left and right rectangles bracketing the tail. Reading order: decreasing-curve: positive decreasing f(x)=1/x; double curve.; right-rectangle-1: Right-endpoint rectangle 1 lies below the curve.; right-rectangle-2: Right-endpoint rectangle 2 lies below the curve.; right-rectangle-3: Right-endpoint rectangle 3 lies below the curve.; right-rectangle-4: Right-endpoint rectangle 4 lies below the curve.; right-rectangle-5: Right-endpoint rectangle 5 lies below the curve.; right-rectangle-6: Right-endpoint rectangle 6 lies below the curve.; rectangle-trap: Annotation: Right rectangles underestimate; shifting left produces an overestimate...</desc><style>.bvlp-svg text{font-family:ui-sans-serif,system-ui,-apple-system,"Segoe UI",sans-serif}.bvlp-svg .bvlp-axis-label,.bvlp-svg .bvlp-panel-title{font-weight:700}.bvlp-svg .bvlp-annotation{paint-order:stroke;stroke:#fff;stroke-width:4px;stroke-linejoin:round}.bvlp-svg path,.bvlp-svg line,.bvlp-svg polyline,.bvlp-svg polygon,.bvlp-svg circle,.bvlp-svg ellipse{shape-rendering:geometricPrecision}@media print{.bvlp-svg{color-adjust:exact;print-color-adjust:exact}.bvlp-svg .bvlp-panel-bg{fill:#fff}.bvlp-svg text{fill:#000!important}}</style><defs><pattern height="10" id="bvlp-unit-4a-u4a-integral-test-rectangles-pattern-diagonal" patternUnits="userSpaceOnUse" width="10"><rect fill="#f8fafc" height="10" width="10"/><path d="M-2 10L10-2M3 15L15 3" fill="none" stroke="#64748b" stroke-width="1.25"/></pattern><pattern height="10" id="bvlp-unit-4a-u4a-integral-test-rectangles-pattern-crosshatch" patternUnits="userSpaceOnUse" width="10"><rect fill="#f8fafc" height="10" width="10"/><path d="M-2 10L10-2M3 15L15 3M-2 0L10 12M3-5L15 7" fill="none" stroke="#64748b" stroke-width="1"/></pattern><pattern height="9" id="bvlp-unit-4a-u4a-integral-test-rectangles-pattern-dots" patternUnits="userSpaceOnUse" width="9"><rect fill="#f8fafc" height="9" width="9"/><circle cx="4.5" cy="4.5" fill="#64748b" r="1.35"/></pattern><marker id="bvlp-unit-4a-u4a-integral-test-rectangles-arrow" markerHeight="7" markerUnits="strokeWidth" markerWidth="7" orient="auto-start-reverse" refX="8.5" refY="5" viewBox="0 0 10 10"><path d="M0 0L10 5L0 10Z" fill="#111827"/></marker></defs><defs><clipPath id="bvlp-unit-4a-u4a-integral-test-rectangles-panel-default-clip"><rect height="436" width="830" x="84" y="46"/></clipPath></defs><g aria-labelledby="bvlp-unit-4a-u4a-integral-test-rectangles-panel-default-title bvlp-unit-4a-u4a-integral-test-rectangles-panel-default-desc" id="bvlp-unit-4a-u4a-integral-test-rectangles-panel-default" role="group"><title id="bvlp-unit-4a-u4a-integral-test-rectangles-panel-default-title">Decreasing rectangles trap the integral tail</title><desc id="bvlp-unit-4a-u4a-integral-test-rectangles-panel-default-desc">A positive decreasing curve is shown with unit-width rectangles. Right-endpoint rectangles lie below the curve and left-endpoint rectangles lie above it. Decreasing curve with left and right rectangles bracketing the tail. Preserve the misconception control described in the lesson and storyboard.</desc><rect class="bvlp-panel-bg" fill="#ffffff" height="436" stroke="#cbd5e1" stroke-width="1" width="830" x="84" y="46"/><line stroke="#e2e8f0" stroke-width="1" x1="109.938" x2="109.938" y1="46" y2="482"/><line stroke="#e2e8f0" stroke-width="1" x1="239.625" x2="239.625" y1="46" y2="482"/><line stroke="#e2e8f0" stroke-width="1" x1="369.313" x2="369.313" y1="46" y2="482"/><line stroke="#e2e8f0" stroke-width="1" x1="499" x2="499" y1="46" y2="482"/><line stroke="#e2e8f0" stroke-width="1" x1="628.688" x2="628.688" y1="46" y2="482"/><line stroke="#e2e8f0" stroke-width="1" x1="758.375" x2="758.375" y1="46" y2="482"/><line stroke="#e2e8f0" stroke-width="1" x1="888.063" x2="888.063" y1="46" y2="482"/><line stroke="#e2e8f0" stroke-width="1" x1="84" x2="914" y1="482" y2="482"/><line stroke="#e2e8f0" stroke-width="1" x1="84" x2="914" y1="391.167" y2="391.167"/><line stroke="#e2e8f0" stroke-width="1" x1="84" x2="914" y1="300.333" y2="300.333"/><line stroke="#e2e8f0" stroke-width="1" x1="84" x2="914" y1="209.5" y2="209.5"/><line stroke="#e2e8f0" stroke-width="1" x1="84" x2="914" y1="118.667" y2="118.667"/><line stroke="#334155" stroke-width="1.5" x1="84" x2="914" y1="482" y2="482"/><line stroke="#334155" stroke-width="1" x1="109.938" x2="109.938" y1="478" y2="486"/><text fill="#111827" font-size="11" text-anchor="middle" x="109.938" y="502"><tspan dy="0" x="109.938">1</tspan></text><line stroke="#334155" stroke-width="1" x1="239.625" x2="239.625" y1="478" y2="486"/><text fill="#111827" font-size="11" text-anchor="middle" x="239.625" y="502"><tspan dy="0" x="239.625">2</tspan></text><line stroke="#334155" stroke-width="1" x1="369.313" x2="369.313" y1="478" y2="486"/><text fill="#111827" font-size="11" text-anchor="middle" x="369.313" y="502"><tspan dy="0" x="369.313">3</tspan></text><line stroke="#334155" stroke-width="1" x1="499" x2="499" y1="478" y2="486"/><text fill="#111827" font-size="11" text-anchor="middle" x="499" y="502"><tspan dy="0" x="499">4</tspan></text><line stroke="#334155" stroke-width="1" x1="628.688" x2="628.688" y1="478" y2="486"/><text fill="#111827" font-size="11" text-anchor="middle" x="628.688" y="502"><tspan dy="0" x="628.688">5</tspan></text><line stroke="#334155" stroke-width="1" x1="758.375" x2="758.375" y1="478" y2="486"/><text fill="#111827" font-size="11" text-anchor="middle" x="758.375" y="502"><tspan dy="0" x="758.375">6</tspan></text><line stroke="#334155" stroke-width="1" x1="888.063" x2="888.063" y1="478" y2="486"/><text fill="#111827" font-size="11" text-anchor="middle" x="888.063" y="502"><tspan dy="0" x="888.063">7</tspan></text><text class="bvlp-axis-label" fill="#111827" font-size="13" text-anchor="end" x="914" y="521"><tspan dy="0" x="914">x</tspan></text><line stroke="#334155" stroke-width="1.5" x1="84" x2="84" y1="46" y2="482"/><line stroke="#334155" stroke-width="1" x1="80" x2="88" y1="482" y2="482"/><text fill="#111827" font-size="11" text-anchor="end" x="76" y="486"><tspan dy="0" x="76">0</tspan></text><line stroke="#334155" stroke-width="1" x1="80" x2="88" y1="391.167" y2="391.167"/><text fill="#111827" font-size="11" text-anchor="end" x="76" y="395.167"><tspan dy="0" x="76">0.25</tspan></text><line stroke="#334155" stroke-width="1" x1="80" x2="88" y1="300.333" y2="300.333"/><text fill="#111827" font-size="11" text-anchor="end" x="76" y="304.333"><tspan dy="0" x="76">0.5</tspan></text><line stroke="#334155" stroke-width="1" x1="80" x2="88" y1="209.5" y2="209.5"/><text fill="#111827" font-size="11" text-anchor="end" x="76" y="213.5"><tspan dy="0" x="76">0.75</tspan></text><line stroke="#334155" stroke-width="1" x1="80" x2="88" y1="118.667" y2="118.667"/><text fill="#111827" font-size="11" text-anchor="end" x="76" y="122.667"><tspan dy="0" x="76">1</tspan></text><text class="bvlp-axis-label" fill="#111827" font-size="13" text-anchor="start" x="84" y="39"><tspan dy="0" x="84">f(x)</tspan></text><g clip-path="url(#bvlp-unit-4a-u4a-integral-test-rectangles-panel-default-clip)"><g aria-label="positive decreasing f(x)=1/x; double curve." data-layer-id="decreasing-curve" data-layer-kind="sampled-series" data-line-style="double" role="group"><path d="M109.938,118.667L119.664,144.015L129.391,166.058L139.117,185.401L148.844,202.513L158.57,217.757L168.297,231.425L178.023,243.749L187.75,254.917L197.477,265.085L207.203,274.381L216.93,282.913L226.656,290.772L236.383,298.034L246.109,304.764L255.836,311.02L265.563,316.849L275.289,322.293L285.016,327.39L294.742,332.172L304.469,336.667L314.195,340.9L323.922,344.893L333.648,348.667L343.375,352.238L353.102,355.623L362.828,358.836L372.555,361.89L382.281,364.796L392.008,367.564L401.734,370.205L411.461,372.727L421.187,375.137L430.914,377.444L440.641,379.653L450.367,381.77L460.094,383.802L469.82,385.753L479.547,387.628L489.273,389.431L499,391.167L508.727,392.838L518.453,394.45L528.18,396.004L537.906,397.504L547.633,398.953L557.359,400.352L567.086,401.706L576.812,403.015L586.539,404.282L596.266,405.509L605.992,406.698L615.719,407.85L625.445,408.968L635.172,410.053L644.898,411.106L654.625,412.128L664.352,413.122L674.078,414.087L683.805,415.026L693.531,415.939L703.258,416.828L712.984,417.693L722.711,418.536L732.438,419.356L742.164,420.156L751.891,420.936L761.617,421.696L771.344,422.437L781.07,423.161L790.797,423.867L800.523,424.556L810.25,425.229L819.977,425.887L829.703,426.529L839.43,427.157L849.156,427.771L858.883,428.372L868.609,428.959L878.336,429.533L888.063,430.095" data-segment-index="0" fill="none" stroke="#155e75" stroke-linecap="round" stroke-linejoin="round" stroke-width="5" vector-effect="non-scaling-stroke"/><path d="M109.938,118.667L119.664,144.015L129.391,166.058L139.117,185.401L148.844,202.513L158.57,217.757L168.297,231.425L178.023,243.749L187.75,254.917L197.477,265.085L207.203,274.381L216.93,282.913L226.656,290.772L236.383,298.034L246.109,304.764L255.836,311.02L265.563,316.849L275.289,322.293L285.016,327.39L294.742,332.172L304.469,336.667L314.195,340.9L323.922,344.893L333.648,348.667L343.375,352.238L353.102,355.623L362.828,358.836L372.555,361.89L382.281,364.796L392.008,367.564L401.734,370.205L411.461,372.727L421.187,375.137L430.914,377.444L440.641,379.653L450.367,381.77L460.094,383.802L469.82,385.753L479.547,387.628L489.273,389.431L499,391.167L508.727,392.838L518.453,394.45L528.18,396.004L537.906,397.504L547.633,398.953L557.359,400.352L567.086,401.706L576.812,403.015L586.539,404.282L596.266,405.509L605.992,406.698L615.719,407.85L625.445,408.968L635.172,410.053L644.898,411.106L654.625,412.128L664.352,413.122L674.078,414.087L683.805,415.026L693.531,415.939L703.258,416.828L712.984,417.693L722.711,418.536L732.438,419.356L742.164,420.156L751.891,420.936L761.617,421.696L771.344,422.437L781.07,423.161L790.797,423.867L800.523,424.556L810.25,425.229L819.977,425.887L829.703,426.529L839.43,427.157L849.156,427.771L858.883,428.372L868.609,428.959L878.336,429.533L888.063,430.095" data-segment-index="0" fill="none" stroke="#ffffff" stroke-linecap="round" stroke-linejoin="round" stroke-width="2.5" vector-effect="non-scaling-stroke"/><text class="bvlp-annotation" data-bvlp-label-box="120.938,94.327,217.76,15.34" fill="#111827" font-size="13" text-anchor="start" x="120.938" y="107.327"><tspan dy="0" x="120.938">positive decreasing f(x)=1/x</tspan></text></g><g aria-label="Annotation: Right rectangles underestimate; shifting left produces an overestimate.." data-layer-id="rectangle-trap" data-layer-kind="annotation" data-line-style="solid" role="group"><line stroke="#111827" stroke-opacity="0.55" stroke-width="1" x1="550.875" x2="561.875" y1="100.5" y2="100.02"/><circle cx="550.875" cy="100.5" fill="#111827" r="2.5"/><text class="bvlp-annotation" data-bvlp-label-box="561.875,54,240.77,46.02" fill="#111827" font-size="13" text-anchor="start" x="561.875" y="67"><tspan dy="0" x="561.875">Right rectangles underestimate;</tspan><tspan dy="1.18em" x="561.875">shifting left produces an</tspan><tspan dy="1.18em" x="561.875">overestimate.</tspan></text></g><g aria-label="Right-endpoint rectangle 1 lies below the curve." data-layer-id="right-rectangle-1" data-layer-kind="polygon" data-line-style="solid" role="group"><polygon fill="url(#bvlp-unit-4a-u4a-integral-test-rectangles-pattern-dots)" fill-opacity="0.38" points="109.938,482 239.625,482 239.625,300.333 109.938,300.333" stroke="#7c3aed" stroke-width="2" vector-effect="non-scaling-stroke"/></g><g aria-label="Right-endpoint rectangle 2 lies below the curve." data-layer-id="right-rectangle-2" data-layer-kind="polygon" data-line-style="solid" role="group"><polygon fill="url(#bvlp-unit-4a-u4a-integral-test-rectangles-pattern-dots)" fill-opacity="0.38" points="239.625,482 369.313,482 369.313,360.889 239.625,360.889" stroke="#7c3aed" stroke-width="2" vector-effect="non-scaling-stroke"/></g><g aria-label="Right-endpoint rectangle 3 lies below the curve." data-layer-id="right-rectangle-3" data-layer-kind="polygon" data-line-style="solid" role="group"><polygon fill="url(#bvlp-unit-4a-u4a-integral-test-rectangles-pattern-dots)" fill-opacity="0.38" points="369.313,482 499,482 499,391.167 369.313,391.167" stroke="#7c3aed" stroke-width="2" vector-effect="non-scaling-stroke"/></g><g aria-label="Right-endpoint rectangle 4 lies below the curve." data-layer-id="right-rectangle-4" data-layer-kind="polygon" data-line-style="solid" role="group"><polygon fill="url(#bvlp-unit-4a-u4a-integral-test-rectangles-pattern-dots)" fill-opacity="0.38" points="499,482 628.688,482 628.688,409.333 499,409.333" stroke="#7c3aed" stroke-width="2" vector-effect="non-scaling-stroke"/></g><g aria-label="Right-endpoint rectangle 5 lies below the curve." data-layer-id="right-rectangle-5" data-layer-kind="polygon" data-line-style="solid" role="group"><polygon fill="url(#bvlp-unit-4a-u4a-integral-test-rectangles-pattern-dots)" fill-opacity="0.38" points="628.688,482 758.375,482 758.375,421.444 628.688,421.444" stroke="#7c3aed" stroke-width="2" vector-effect="non-scaling-stroke"/></g><g aria-label="Right-endpoint rectangle 6 lies below the curve." data-layer-id="right-rectangle-6" data-layer-kind="polygon" data-line-style="solid" role="group"><polygon fill="url(#bvlp-unit-4a-u4a-integral-test-rectangles-pattern-dots)" fill-opacity="0.38" points="758.375,482 888.063,482 888.063,430.095 758.375,430.095" stroke="#7c3aed" stroke-width="2" vector-effect="non-scaling-stroke"/></g></g></g></svg>
